<svg xmlns="http://www.w3.org/2000/svg" width="938" height="361" viewBox="0 0 938 361">
  <defs>
    <linearGradient id="illustration-a" x1="50%" x2="50%" y1="0%" y2="100%">
      <stop offset="0%" stop-color="#9871D0"/>
      <stop offset="100%" stop-color="#BDCED6" stop-opacity="0"/>
    </linearGradient>
  </defs>
  <path fill="url(#illustration-a)" fill-rule="evenodd" d="M825,136.089528 L819.096702,139.467921 L818.103298,137.732079 L835.194653,127.950882 L853.188603,138.027494 L852.211397,139.772506 L844,135.174124 L844,153.077033 L842.628609,152.528477 L840.644005,151.734488 C836.68808,150.227469 832.280435,150.427816 828.493919,152.319145 L825,153.816539 L825,136.089528 L825,136.089528 Z M827,134.944949 L835.205347,130.249118 L842,134.054124 L842,150.122967 L841.371391,149.871523 C836.87994,148.160348 831.889565,148.387184 827.652786,150.505573 L827,150.78474 L827,134.944949 L827,134.944949 Z M295.996455,185 L301,185 L301,160 L303,160 L303,185 L308,185 L308,158 L310,158 L309.996931,185 L313,185 L313,187 L309.987047,187 L307.102821,222.505827 L309.955606,263.526918 L330.394019,251.537455 L331.405981,253.262545 L280.605981,283.062545 L279.594019,281.337455 L294.870667,272.375957 L294.301564,272.344088 L297.097568,222.415445 L294.017395,187 L292,187 L292,185 L294,185 L294,158 L296,158 L295.996455,185 L295.996455,185 Z M296.021118,187 L301,187 L301,193 L303,193 L303,187 L307.983735,187 L305.218686,221 L298.972073,221 L296.021118,187 L296.021118,187 Z M299.067967,223 L305.143529,223 L308.002409,264.269377 L308.782409,264.215132 L296.351561,271.507244 L299.067967,223 L299.067967,223 Z M799,279.12318 L799,298 L799.174095,298 L777.395171,310.736781 L778.404829,312.463219 L800.804829,299.363219 L809.014651,294.550566 L827.145324,304.567512 L835.301406,299.196434 L843,304.24034 L843,324.588403 L852.740874,330 L891,330 L891,328 L853.259126,328 L845,323.411597 L845,303.15966 L835.298594,296.803566 L827.054676,302.232488 L817.583873,297 L819,297 L819,260.333945 L828.581969,266.644023 L828.71714,252.856592 L819,258.476143 L819,250.075333 L827.594375,245.078603 L827.705642,233.729391 L817.79124,227.936706 L808.205356,233.732822 L808.094273,245.396541 L817,250.153008 L817,296.677418 L808.985349,292.249434 L801,296.930501 L801,277.980323 L801.218745,277.855326 L801,277.71301 L801,270.388403 L810,265.388403 L810,253.914101 L799.894522,248.250591 L790,253.920485 L790,265.388403 L799,270.388403 L799,276.411805 L790.017912,270.568037 L789.882963,284.332915 L799,279.12318 L799,279.12318 Z M840,260.36619 L840,283 L842,283 L842,260.966199 L851.694352,255.592156 L851.805699,244.012157 L841.9,238.558458 L832,244.00902 L832,255.56619 L840,260.36619 L840,260.36619 Z M854,278.359809 L854,313.255413 L862.894844,319 L875,319 L875,321 L862.305156,321 L852,314.344587 L852,298.9898 L827.91617,285.675162 L828.88383,283.924838 L852,296.704509 L852,277 L852.375956,277 L862.103181,271.235718 L872.067675,277.214414 L861.996868,283.057969 L854,278.359809 L854,278.359809 Z M369,266.127977 L369,242 L354,233 L338,241.5 L338.888889,242 L338,242 L338,263 L340,263 L340,242.625 L353.111111,250 L353,250 L353,267 L355,267 L355,250 L354.882353,250 L367,243.133333 L367,274 L369,274 L369,268.661311 L381,276.358562 L381,307 L383,307 L383,276.363077 L395.041891,268.69332 L395.041891,275 L397,275 L397,266.8331 L383,258.588873 L383,249.575802 C385.581986,249.324562 387.6,247.147947 387.6,244.5 C387.6,241.683348 385.316652,239.4 382.5,239.4 C379.683348,239.4 377.4,241.683348 377.4,244.5 C377.4,246.794619 378.915399,248.735298 381,249.375841 L381,258.625229 L369,266.127977 L369,266.127977 Z M208,264.798001 L208,231.420683 L222.684849,223 L222,223 L222,206.636855 L235,198.754966 L235,158.428065 L236.13951,159.039883 L236.020712,158.822342 L250,151.188263 L250,135 L252,135 L252,151.640153 L266,159.515153 L266,181.933759 L281,190.209621 L281,226.698001 C283.337842,227.162778 285.1,229.225602 285.1,231.7 C285.1,234.516652 282.816652,236.8 280,236.8 C277.183348,236.8 274.9,234.516652 274.9,231.7 C274.9,229.225602 276.662158,227.162778 279,226.698001 L279,192.854719 L266.402327,200.270371 L266.499992,224.295935 L264.500008,224.304065 L264.397673,199.129629 L278.24898,190.976023 L265.506021,183.945425 L252,191.583312 L252,232 L250,232 L250,190.416688 L264.883167,182 L264,182 L264,161.946159 L250.908874,169.239787 L237,161.771935 L237,212 L235,212 L235,201.093853 L224,207.763145 L224,223 L223.915983,223 L238.7,231.418676 L238.7,273.3 L236.7,273.3 L236.7,233.730609 L224.3,240.877831 L224.3,287.752113 L239.188018,284.522726 L239.611982,286.477274 L213.820074,292.071842 L230.641378,318.259553 L228.958622,319.340447 L212.24617,293.322198 L203.266355,308.899428 L203.190403,308.855644 L194.451013,326.842527 L184.347214,331.894427 L184.154926,331.966961 L173.39132,334.804639 L163.225884,344.036514 L152.790679,337.860577 L153.358894,336.900489 L152.400071,336.911904 L152.3,328.5 C152.3,326.438846 153.392833,324.51811 155.194821,323.436986 L167,316.526637 L167,308.5 C167,306.466265 168.165837,304.534308 170.002616,303.43247 L177,299.420636 L177,297 L179,297 L179,300.579364 L178.497384,300.86753 L171.014496,305.157493 C169.780109,305.898125 169,307.190877 169,308.5 L169,316.956665 L171.359737,325.019101 L169.440263,325.580899 L167.399985,318.609951 L156.214496,325.157493 C155.022874,325.872466 154.3,327.142972 154.299929,328.488096 L154.395144,336.486135 L162.974116,341.563486 L172.40868,332.995361 L183.545184,330.059374 L190.69695,326.483491 L178.855547,322.138804 L179.544453,320.261196 L190.892979,324.425044 L183.465197,316.37828 L184.934803,315.02172 L192.629589,323.357737 L191.803038,312.777888 L193.796962,312.622112 L194.536631,322.089879 L201.134162,308.51124 L188.994944,292.293199 C187.806397,290.680171 185.822148,289.7 183.793711,289.69998 L168.370891,289.602981 L161.414496,293.757493 C160.213588,294.478037 159.5,295.753847 159.5,297.2 L159.5,300.493633 L158.978852,300.777896 L151.314496,304.957493 C149.930238,305.788047 149,307.126683 149,308.4 L149,317.471946 L148.50702,317.761934 L136.614496,324.757493 C135.464566,325.447451 134.8,326.690832 134.8,328.1 L132.8,328.1 C132.8,326.005942 133.816652,324.103818 135.59298,323.038066 L147,316.328054 L147,308.4 C147,306.344049 148.347087,304.405557 150.321148,303.222104 L157.5,299.306367 L157.5,297.2 C157.5,295.055244 158.578759,293.126554 160.387259,292.041457 L166.019994,288.677462 L157.603861,283.868243 L158.596139,282.131757 L168.168485,287.601669 L183.8,287.7 C186.451023,287.7 189.035477,288.976658 190.600575,291.100767 L195.50347,297.651035 C196.571416,295.74894 199.131092,294.893252 201.147214,296.105573 L201.828219,296.446075 L201.935316,296.374693 C203.891459,295.036279 206.362633,295.807927 207.447153,297.642446 L211.554957,290.516662 L222.3,288.185936 L222.3,240.875819 L210,233.736658 L210,264.798001 C212.337842,265.262778 214.1,267.325602 214.1,269.8 C214.1,272.616652 211.816652,274.9 209,274.9 C206.183348,274.9 203.9,272.616652 203.9,269.8 C203.9,267.325602 205.662158,265.262778 208,264.798001 L208,264.798001 Z M524.366331,342.566619 L522.910051,342.358579 C522.951121,342.071084 522.984195,341.827163 523.058772,341.267836 C523.129281,340.739019 523.163233,340.48805 523.201886,340.215892 C523.354568,333.90933 518.315127,328.575515 511.956563,328.299056 C510.182334,328.221916 508.39504,328.599144 506.719358,329.363963 C506.703494,334.322708 505.426859,339.360594 502.765426,344.001036 C496.979861,353.994286 484.261764,357.433363 474.301036,351.666622 C467.220125,347.589734 464.759122,338.477374 468.832894,331.401876 C471.803319,326.231137 478.415561,324.4496 483.498964,327.433378 C487.276912,329.608559 488.542582,334.319666 486.366622,338.098964 L484.633378,337.101036 C486.258435,334.278567 485.321323,330.790424 482.493799,329.162416 C478.365079,326.739036 472.985412,328.18848 470.566622,332.398964 C467.043859,338.517448 469.174689,346.40728 475.301036,349.934574 C484.305198,355.147509 495.800878,352.038984 501.032543,343.002488 C503.326942,339.001997 504.517687,334.6862 504.696252,330.405708 L504.632584,330.439214 L504.6002,328.819996 C504.309344,314.27722 492.663132,302.483587 478.073164,302.09964 C463.759418,301.715378 451.547807,312.459247 450.094764,326.602202 L449.959296,327.920751 L448.728609,327.428477 C446.900283,326.697146 444.926509,326.297692 442.771166,326.199584 C438.701733,326.082197 434.907667,327.339049 431.835973,329.546847 L431.883045,329.61244 C423.852742,335.375364 422.016963,346.448311 427.714665,354.520069 C431.594889,359.970859 439.270713,361.264537 444.718762,357.386267 C448.443116,354.726014 449.288969,349.650893 446.690058,345.88651 C444.90212,343.417452 441.522984,342.845599 439.1,344.6 C437.521714,345.783715 437.135775,347.978742 438.219232,349.526538 L436.580768,350.673462 C434.870373,348.230041 435.469425,344.822931 437.91349,342.990058 C441.251184,340.573107 445.878836,341.356248 448.322897,344.731809 C451.551309,349.40744 450.500127,355.714527 445.879931,359.014665 C439.530563,363.534555 430.60602,362.030418 426.083032,355.676683 C423.842045,352.501951 422.649849,348.908481 422.440374,345.306395 C420.778458,344.7156 418.997316,344.38726 417.071166,344.299584 C407.220636,344.015434 398.983585,351.783472 398.699584,361.628834 L396.700416,361.571166 C397.016278,350.621284 406.174604,341.984428 417.145408,342.301031 C419.011706,342.385863 420.759468,342.675652 422.410534,343.18892 C422.874079,332.373258 431.969039,323.887154 442.845408,324.201031 C444.769024,324.288469 446.566711,324.593645 448.262383,325.136843 C450.397285,310.581613 463.19493,299.699504 478.126307,300.100346 C483.214556,300.234247 487.969265,301.661039 492.08073,304.061805 L492.097512,304.032543 C500.859446,309.05777 505.992213,317.874248 506.647832,327.223569 C508.381506,326.547731 510.211661,326.221301 512.043437,326.300944 C519.507393,326.625464 525.414909,332.900114 525.189949,340.441421 C525.148995,340.728104 525.115992,340.971459 525.041859,341.527434 C535.564394,339.363821 546.004449,345.897206 548.669586,356.45525 L546.730414,356.94475 C544.25989,347.157676 534.386852,341.210415 524.64475,343.669586 L524.366331,342.566619 L524.366331,342.566619 Z M816.369584,168.077124 C820.278654,171.512076 822.925699,176.36134 823.497823,181.827703 C826.18204,180.770735 829.04767,180.2 831.9,180.2 C842.562975,180.2 851.66718,187.724904 853.681351,198.007777 L851.718649,198.392223 C849.887985,189.046201 841.604926,182.2 831.9,182.2 C828.873396,182.2 825.816285,182.90925 823.021111,184.207009 L821.656375,184.840637 L821.600685,183.337012 C821.219102,173.034261 812.722045,164.8 802.4,164.8 C792.092736,164.8 783.749046,172.814125 783.226019,182.985284 C783.11718,186.369622 783.93091,189.830257 785.764246,192.996931 C789.389833,199.225503 797.483186,201.356849 803.801876,197.732894 C808.051129,195.291834 809.54185,189.991492 807.133378,185.798964 C805.518073,182.993435 801.836339,182.032983 798.992057,183.670563 C797.174545,184.697852 796.541363,186.98705 797.570563,188.807943 L795.829437,189.792057 C794.257209,187.010422 795.227977,183.500722 798.001036,181.933378 C801.789645,179.752057 806.696656,181.032147 808.867106,184.801876 C811.830877,189.961033 809.997324,196.480331 804.797512,199.467457 C797.527445,203.637054 788.216283,201.185004 784.034574,194.001036 C782.237752,190.897436 781.326533,187.537375 781.225846,184.206535 C780.100749,183.735728 778.948953,183.499969 777.719996,183.4998 C773.284062,183.588519 769.821876,187.21557 770,191.6 C770,191.951794 770.063937,192.420665 770.180581,193.003884 L770.553403,194.867998 L768.806081,194.119145 C766.809271,193.263369 764.5412,192.8 762.334462,192.799406 C754.189629,193.080262 747.812445,199.717151 747.999378,207.664728 C748.281585,215.660598 755.064724,221.979932 763.165538,221.700594 C768.523672,221.515831 773.24793,218.588845 775.720708,214.023717 L775.793601,214.063201 C775.834924,213.986931 775.875662,213.910156 775.915807,213.832879 C778.445565,209.044407 776.466744,203.051406 771.552786,200.594427 C768.254283,198.945176 764.232959,200.231999 762.480471,203.4741 C761.357545,205.559534 762.234411,208.140026 764.428086,209.196262 C765.849454,209.869542 767.480718,209.355582 768.225843,208.014357 L769.974157,208.985643 C768.71467,211.252721 765.941862,212.126345 763.566184,211.001002 C760.350499,209.452709 759.050193,205.626095 760.720293,202.524483 C762.985341,198.334145 768.179863,196.671898 772.447214,198.805573 C778.358115,201.761023 780.741663,208.979769 777.687405,214.76099 C777.668995,214.79643 777.650475,214.831777 777.631845,214.86703 L778.267457,214.502488 C782.090911,221.169023 789.257129,225.4 797.1,225.4 C804.429589,225.4 811.119422,221.769858 815.174355,215.835809 L815.897803,214.777105 L816.748347,215.736692 C820.58219,220.062053 826.064154,222.6 831.9,222.6 C836.631312,222.6 839.826435,221.626972 843.755008,218.804623 L843.665197,218.72172 C844.821454,217.469107 845.71874,215.981502 846.265782,214.343298 C848.168655,209.359582 845.627591,203.628069 840.641021,201.633346 C837.224654,200.319358 833.523044,201.905762 832.237749,205.247314 C831.415694,207.466863 832.501895,209.967651 834.688057,210.778365 C836.030533,211.343618 837.546528,210.652503 838.061657,209.254295 L839.938343,209.945705 C839.034589,212.398753 836.320835,213.635906 833.952686,212.637749 C830.753478,211.452857 829.162921,207.790878 830.366654,204.541021 C832.057219,200.145554 836.922644,198.060372 841.371391,199.771523 C847.380793,202.175284 850.428154,209.048776 848.148683,215.016228 C847.524397,216.889086 846.479309,218.621733 845.134803,220.07828 L844.482979,219.476596 L845.088172,220.308736 C840.737665,223.472741 837.107891,224.6 831.9,224.6 C825.903495,224.6 820.249654,222.164056 816.100296,217.96954 C811.628511,223.844712 804.676076,227.4 797.1,227.4 C788.779789,227.4 781.158834,223.041427 776.900851,216.117497 C772.292935,223.274202 762.885135,225.910827 755.148158,221.992098 L755.17241,221.944216 C749.910097,219.304972 746.220597,213.96727 746.000277,207.723523 C745.787025,198.660324 753.033304,191.118947 762.3,190.8 C764.233529,190.8 766.181707,191.107117 768.000832,191.640782 C767.777564,186.17073 772.12984,181.611203 777.7,181.5 C778.949052,181.5 780.130025,181.69696 781.271031,182.085821 C781.757104,175.420191 785.474216,169.120724 791.806761,165.530106 L791.841574,165.591503 C794.946139,163.814254 798.549367,162.8 802.4,162.8 C807.403659,162.8 812.017691,164.550637 815.655838,167.476966 L815.012772,166.590578 L820.11349,162.890058 C829.171724,156.330647 841.566851,156.633707 850.323376,163.618078 L872.023376,180.918078 L870.776624,182.481922 L849.076441,165.181776 C841.021448,158.756961 829.616192,158.478104 821.287228,164.509422 L816.369584,168.077124 L816.369584,168.077124 Z M500.043493,225.385482 L491.598201,220.532938 C489.387613,219.253118 486.69535,219.253118 484.57855,220.546718 L481.379221,222.345964 L481.312703,222.226764 L477.1531,224.547971 C475.818009,224.921645 474.365563,224.781354 473.185643,224.125843 L439.098328,204.533011 C433.932151,201.519384 427.477845,202.368335 423.162534,206.623738 L410.040959,215.47086 L411.159041,217.12914 L424.359041,208.22914 L424.507107,208.107107 C428.18293,204.431284 433.685,203.69062 438.096129,206.263779 L461.167672,219.524858 L458.39738,221.135493 C457.619625,221.559299 456.680375,221.559299 455.878852,221.122104 L453.529999,219.652002 C452.109309,218.747887 450.290691,218.747887 448.863125,219.656339 L446.275903,221.248342 C445.490691,221.747887 444.609309,221.747887 443.836875,221.256339 L440.996139,219.631757 C439.574141,218.855898 437.896519,218.855898 436.585504,219.642507 L433.975903,221.248342 C433.296519,221.655898 432.374141,221.655898 431.578852,221.222104 L428.480833,219.523188 C426.796672,218.616299 424.67315,218.88677 423.276174,220.211785 L402.662334,233.356842 L403.737666,235.043158 L424.437666,221.843158 L424.607107,221.707107 C425.372323,220.941891 426.586171,220.774463 427.5259,221.280471 L430.619167,222.976812 C432.025859,223.744102 433.703481,223.744102 435.014496,222.957493 L437.624097,221.351658 C438.303481,220.944102 439.225859,220.944102 440.021148,221.377896 L442.803861,222.968243 C444.190691,223.852113 445.909309,223.852113 447.336875,222.943661 L449.924097,221.351658 C450.709309,220.852113 451.690691,220.852113 452.463125,221.343661 L454.870001,222.847998 C456.319625,223.640701 457.980375,223.640701 459.378852,222.877896 L463.168581,220.674942 L472.201672,225.866989 C472.674908,226.129924 473.175578,226.33393 473.692326,226.479206 L458.912703,234.726764 L459.887297,236.473236 L477.949957,226.393627 C478.366165,226.261046 478.77335,226.091443 479.165746,225.884918 L485.590261,222.271576 C487.10465,221.346882 489.012387,221.346882 490.598964,222.265426 L508.701799,232.667062 L509.698201,230.932938 L502.026813,226.525069 L506.632351,223.7482 L513.132693,227.184095 L514.067307,225.415905 L506.567649,221.4518 L500.043493,225.385482 L500.043493,225.385482 Z M72.6815582,144.019542 L95.3089869,130.928848 C101.113788,127.657051 108.186212,127.657051 113.998424,130.933067 L183.398424,170.833067 L182.401576,172.566933 L113.008987,132.671152 C107.813788,129.742949 101.486212,129.742949 96.3007683,132.665581 L76.6559935,144.030752 C76.7970186,144.08781 76.9369715,144.150982 77.075517,144.220293 L80.803871,146.236221 C81.7016548,146.759928 82.8891395,146.738723 83.7978645,146.135211 L86.896129,144.336221 C88.4074915,143.454593 90.3925085,143.454593 91.8989644,144.333378 L95.1740998,146.219529 C96.1832862,146.762937 97.3844279,146.741864 98.2649479,146.155181 L101.275903,144.248342 C102.89731,143.250553 104.90269,143.250553 106.527363,144.25036 L109.424097,146.048342 C110.40269,146.650553 111.49731,146.650553 112.49298,146.038066 L117.59298,143.038066 L118.60702,144.761934 L113.524097,147.751658 C111.90269,148.749447 109.99731,148.749447 108.372637,147.74964 L105.475903,145.951658 C104.49731,145.349447 103.30269,145.349447 102.335052,145.944819 L99.3547002,147.83205 C97.8588153,148.829307 95.8671993,148.864248 94.2010356,147.966622 L90.896129,146.063779 C90.0074915,145.545407 88.7925085,145.545407 87.9021355,146.064789 L84.8547002,147.83205 C83.3548972,148.831919 81.3458699,148.867794 79.824483,147.979707 L76.1527864,145.994427 C75.2952535,145.565661 74.3672669,145.514232 73.5607317,145.821466 L72.7413662,146.295497 C72.6605871,146.361268 72.5823995,146.431814 72.5071068,146.507107 L72.4589086,146.458909 L58.1007683,154.765581 L57.0992317,153.034419 L71.6174067,144.635188 C71.9502933,144.382782 72.3075709,144.177386 72.6815582,144.019542 L72.6815582,144.019542 Z M180,200.679984 L180,223 L178,223 L178,198.023828 L192.817788,189.433806 L207,198.243968 L207,227 L205,227 L205,199.356032 L192.782212,191.766194 L180.697305,198.771937 L193,205.924667 L193,242 L191,242 L191,207.075333 L180,200.679984 L180,200.679984 Z M271,323.413123 L263.60702,327.761934 L262.59298,326.038066 L271.602061,320.738606 L280.710077,326.139871 L279.689923,327.860129 L273,323.892849 L273,329 L271,329 L271,323.413123 L271,323.413123 Z M197,299.650399 L202.247888,306.661578 L206.088092,300 L206,300 L206,299.7 C206,298.108627 204.30427,297.17717 203.0547,298.03205 L201.971843,298.753955 L201.452786,298.494427 L200.185504,297.857493 C198.816684,297.0362 197,298.018192 197,299.6 L197,299.650399 L197,299.650399 Z M136.52844,299.992373 L127.910113,294.875242 L127.800159,288.717854 L129.799841,288.682146 L129.889887,293.724758 L139.010539,299.140145 L138.5,300 L139.003871,300.863779 L131.814496,305.057493 C130.56989,305.804257 129.8,307.102071 129.8,308.5 L127.8,308.5 C127.8,306.383644 128.951163,304.443112 130.796129,303.336221 L136.52844,299.992373 L136.52844,299.992373 Z M139.6,272.280323 L139.6,275.8 C139.6,276.394579 139.966999,277.000127 140.50153,277.33486 L147.359241,281.310344 C148.580193,281.878624 149.299997,283.110384 149.299792,284.479596 L149.511824,294.86917 L144.001718,298.065031 L142.998282,296.334969 L147.488188,293.730823 L147.3,284.5 C147.3,283.851455 146.994007,283.336098 146.493862,283.113812 L146.39847,283.06514 L139.470001,279.047998 C138.345196,278.344995 137.6,277.115421 137.6,275.8 L137.6,266 L139.6,266 L139.6,269.97682 L143.003861,268.031757 L143.996139,269.768243 L139.6,272.280323 L139.6,272.280323 Z M300.372456,287.072456 L293.213637,291.358008 L292.186363,289.641992 L306.903861,280.831757 L323.707565,271.229651 C331.640625,266.741209 341.32043,266.769932 349.091941,271.329371 L373.691941,285.229371 L372.708059,286.970629 L348.093985,273.062525 C340.926848,268.857805 332.007895,268.831339 324.696139,272.968243 L307.913637,282.558008 L304.632855,284.522013 C304.923184,284.628421 305.207315,284.762188 305.481919,284.923784 L309.447214,287.105573 C310.572744,287.668338 311.802273,287.647499 312.79298,287.038066 L316.203861,285.031757 C317.911294,284.056081 319.888706,284.056081 321.603871,285.036221 L325.196139,287.131757 C326.299091,287.762015 327.597974,287.741066 328.681698,287.044802 L331.959242,285.058822 C333.68865,283.947059 335.91135,283.947059 337.622562,285.047399 L340.696139,286.931757 C341.84059,287.585729 343.159931,287.628288 344.197106,287.035652 L349.697106,283.835652 L350.702894,285.564348 L345.196139,288.768243 C343.514878,289.728963 341.44317,289.662134 339.677438,288.652601 L336.559242,286.741178 C335.48865,286.052941 334.11135,286.052941 333.018302,286.755198 L329.740758,288.741178 C328.045776,289.830809 325.947575,289.864651 324.196129,288.863779 L320.603861,286.768243 C319.511294,286.143919 318.288706,286.143919 317.20702,286.761934 L313.824097,288.751658 C312.243043,289.724615 310.279715,289.757891 308.518081,288.876216 L304.49298,286.661934 C303.197539,285.89991 301.594742,286.119472 300.507107,287.207107 L300.372456,287.072456 L300.372456,287.072456 Z M563.389347,216.532323 C564.826396,215.979725 566.374985,215.722536 567.933315,215.800555 C574.48909,216.019081 579.617718,221.485119 579.4,228 C579.4,228.108064 579.397482,228.218008 579.392498,228.330725 C581.701209,227.498979 584.113625,227.116671 586.6,227.2 C588.218783,227.2 589.704912,227.439698 591.557663,227.933765 L591.042337,229.866235 C589.344068,229.413363 588.021217,229.2 586.566685,229.199445 C583.775955,229.106421 581.127177,229.650366 578.619058,230.807959 L576.902865,231.600049 L577.213606,229.735601 C577.33644,228.998597 577.4,228.447745 577.400555,227.966685 C577.581985,222.523776 573.319831,217.981216 567.850062,217.798752 C566.326976,217.722598 564.823691,218.031597 563.470325,218.671723 C563.452401,222.957812 562.352601,227.306976 560.063014,231.305179 C554.9864,239.977728 543.979806,242.941042 535.298964,237.965426 C529.115839,234.385722 526.960832,226.371791 530.533094,220.201529 C533.110893,215.718399 538.824007,214.160277 543.296139,216.731757 C546.57862,218.60746 547.740577,222.819554 545.868243,226.096139 L544.131757,225.103861 C545.454772,222.788585 544.629567,219.797218 542.301529,218.466906 C538.786716,216.445889 534.295306,217.670819 532.265426,221.201036 C529.246054,226.416316 531.072218,233.207363 536.297278,236.232409 C544.020194,240.658958 553.8136,238.022272 558.332214,230.303063 C560.241902,226.968233 561.253188,223.368669 561.439967,219.78737 L561.438984,219.787919 L561.40027,218.12325 C561.110819,205.676844 551.161255,195.580962 538.673461,195.199648 C527.984965,194.915882 518.574226,201.765119 515.55757,211.788201 L513.64243,211.211799 C516.918359,200.32726 527.133499,192.892572 538.73052,193.200466 C543.126066,193.334681 547.231538,194.577122 550.783684,196.655358 L550.796937,196.632214 C558.306443,200.932529 562.746455,208.496512 563.389347,216.532323 L563.389347,216.532323 Z M619,209.651751 L619,223 L619.242105,223 L618.798964,223.765426 L630.198964,230.365426 L631.201036,228.634574 L621,222.728711 L621,209.245955 L626.674507,212.750798 L627.725493,211.049202 L621,206.895221 L621,201.711618 L626.502488,204.867457 L627.497512,203.132543 L621,199.406029 L621,193.877621 L626.49847,197.06514 L627.50153,195.33486 L621,191.565857 L621,190.517434 L612.722053,195.021611 L613.677947,196.778389 L619,193.882566 L619,199.645701 L612.89298,203.238066 L613.90702,204.961934 L619,201.966064 L619,207.348249 L612.903861,210.831757 L613.896139,212.568243 L619,209.651751 L619,209.651751 Z M640,219.203492 L640,213.806331 L634.403069,217.064246 L633.396931,215.335754 L640,211.492176 L640,206.060905 L634.667888,208.883788 L633.732112,207.116212 L642,202.739095 L642,204.035269 L648.086702,207.426432 L647.113298,209.173568 L642,206.324731 L642,211.936803 L647.887821,215.227057 L646.912179,216.972943 L642,214.227902 L642,219.455823 L648.116347,223.14362 L647.083653,224.85638 L642,221.791236 L642,235 L640,235 L640,221.500856 L634.392057,224.670563 L633.407943,222.929437 L640,219.203492 L640,219.203492 Z M599,219.165857 L599,213.811618 L593.497512,216.967457 L592.502488,215.232543 L599,211.506029 L599,205.960905 L593.667888,208.783788 L592.732112,207.016212 L601,202.639095 L601,203.829579 L607.192057,207.329437 L606.207943,209.070563 L601,206.126943 L601,211.73544 L607.097512,215.232543 L606.102488,216.967457 L601,214.04103 L601,219.295529 L607.216347,223.04362 L606.183653,224.75638 L601,221.630942 L601,233.728336 L601.473645,233.449735 C603.864967,231.969393 606.856312,231.93757 609.278693,233.322018 L647.978693,254.422018 L647.021307,256.177982 L608.303861,235.068243 C606.496168,234.035276 604.289571,234.05875 602.50702,235.161934 L592.30702,241.161934 L591.29298,239.438066 L599,234.904748 L599,221.477621 L593.50153,224.66514 L592.49847,222.93486 L599,219.165857 L599,219.165857 Z M601,193.751534 L601,200 L599,200 L599,193.604373 L593.687821,196.572943 L592.712179,194.827057 L601,190.195627 L601,191.43977 L607.20153,195.03486 L606.19847,196.76514 L601,193.751534 L601,193.751534 Z M383.37648,225.000596 L383.377337,224.999096 L384.064399,225.113606 C385.683894,225.383522 386.654545,225.5 387.6,225.5 C397.527134,225.5 405.6,217.368422 405.6,207.4 C405.6,197.431578 397.527134,189.3 387.6,189.3 C385.141273,189.3 382.67651,189.826454 380.284615,190.823077 L379.464174,191.164927 L379.028424,190.390261 C376.441931,185.79205 371.61324,182.9 366.3,182.9 C362.507384,182.9 359.022147,184.331225 356.292846,186.925104 C352.133806,191.158827 351.224642,197.823698 354.455916,203.182884 C357.062392,207.497052 362.638163,208.863116 366.881698,206.244802 C369.715036,204.527628 370.655139,200.740357 368.945801,197.919947 C367.81625,196.064256 365.411734,195.450859 363.529999,196.547998 C362.360204,197.27912 361.964054,198.77569 362.647998,199.870001 L360.952002,200.929999 C359.666938,198.873897 360.386932,196.15392 362.496129,194.836221 C365.346887,193.173279 368.95875,194.094673 370.655198,196.881698 C372.939327,200.650511 371.694147,205.666807 367.925107,207.951036 C362.739796,211.150484 355.924134,209.480647 352.74362,204.216347 C349.319012,198.536508 349.946028,191.569959 353.82352,186.700473 C350.823027,183.105214 346.382267,181 341.5,181 C332.616767,181 325.4,188.187667 325.4,197.1 C325.4,199.316033 325.85276,201.484516 326.719145,203.506081 L327.06533,204.313845 L326.308729,204.760927 C322.110304,207.241814 319.5,211.771459 319.5,216.8 C319.5,224.433268 325.637915,230.6 333.2,230.6 C334.020022,230.6 334.840432,230.527952 335.661851,230.383664 L335.633142,230.214019 C341.570068,229.209309 345.625026,223.440988 344.614788,217.471341 C343.910598,213.422249 340.134037,210.778656 336.084289,211.482872 C333.423324,211.981803 331.670216,214.471725 332.08387,217.121115 C332.38842,218.796141 333.998524,219.939548 335.715711,219.717128 C336.753937,219.522461 337.41297,218.563867 337.219419,217.596116 L339.180581,217.203884 C339.594073,219.271344 338.210189,221.284266 336.029339,221.6916 C333.211821,222.059103 330.613395,220.213844 330.111988,217.454377 C329.527561,213.714042 331.990783,210.215552 335.728659,209.514788 C340.877406,208.619354 345.691382,211.989137 346.585981,217.133142 C347.757998,224.058698 343.175777,230.739257 336.362529,232.112646 L336.396116,232.280581 C335.331859,232.493432 334.26618,232.6 333.2,232.6 C324.531243,232.6 317.5,225.535746 317.5,216.8 C317.5,211.357433 320.185992,206.41523 324.561232,203.497684 C323.797473,201.459402 323.4,199.300398 323.4,197.1 C323.4,187.081285 331.514002,179 341.5,179 C346.884826,179 351.808048,181.290324 355.182192,185.21034 C355.986034,184.439017 356.887978,183.743954 357.883653,183.14362 L357.914786,183.195255 C360.419382,181.702412 363.276687,180.9 366.3,180.9 C372.048374,180.9 377.296394,183.874852 380.322674,188.657863 C382.699408,187.76923 385.146569,187.3 387.6,187.3 C398.63496,187.3 407.6,196.33024 407.6,207.4 C407.6,218.46976 398.63496,227.5 387.6,227.5 C386.661052,227.5 385.747968,227.405855 384.40751,227.195403 C381.68178,231.498909 376.972173,234.2 371.8,234.2 L371.8,232.2 C376.006455,232.2 379.864324,230.131277 382.276861,226.778128 C377.379126,225.315113 374.203356,220.401756 375.013606,215.135601 C375.706364,210.979052 379.631073,208.124718 383.757991,208.812559 C386.798166,209.298987 388.875548,212.207322 388.386394,215.264399 C387.994472,217.615929 385.874166,219.176155 383.547943,218.788372 C381.722871,218.507591 380.517648,216.811351 380.813606,215.035601 L382.786394,215.364399 C382.672352,216.048649 383.13622,216.701499 383.864399,216.813606 C385.100747,217.019664 386.201227,216.209877 386.412559,214.942009 C386.727067,212.976338 385.385705,211.098432 383.435601,210.786394 C380.399436,210.280366 377.498808,212.389913 376.988372,215.452057 C376.304496,219.897251 379.128655,224.026876 383.37648,225.000596 L383.37648,225.000596 Z M65.6300435,269.689261 L56.7981494,264.564954 L57.8018506,262.835046 L77.1008302,274.032406 C74.9041319,269.259782 76.3714329,263.132202 81.5003332,260.133782 L113.363012,241.754319 L107.13079,237.822192 C105.567596,236.739981 104.7,235.036922 104.700568,233.066311 L104.977155,224.87645 L86.3949876,213.963112 L76.9949876,208.463112 L78.0050124,206.736888 L85.9153126,211.365256 L86.0000392,201.791151 L87.9999608,201.808849 L87.9050783,212.530576 L105,222.570451 L105,201 L107,201 L106.999432,224.233689 L106.7,233.1 C106.7,234.389004 107.252808,235.474145 108.233503,236.154202 L114.733503,240.254202 L114.029936,241.369614 L126.385504,234.242507 C131.1076,231.40925 134,226.321724 134,220.8 L134,220.304266 L132.105719,221.362698 C128.554709,223.444325 124,220.791096 124,216.7 L124,213 L126,213 L126,216.7 C126,219.253564 128.883503,220.933275 131.112179,219.627057 L136,216.895627 L136,220.8 C136,227.025597 132.737855,232.763478 127.399667,235.966218 L82.5046966,261.863297 C76.6800951,265.268448 76.6482236,273.618771 82.4061351,277.037546 L103.70702,289.538066 C112.786055,294.878674 114.071402,307.482218 106.276182,314.636735 L104.923818,313.163265 C111.731707,306.914929 110.610329,295.919198 102.693865,291.262454 L86.1162336,281.533786 L86.0981494,281.564954 L67.1935942,270.596441 L67.4090411,270.960742 L58.1090411,276.460742 L57.0909589,274.739258 L65.6300435,269.689261 L65.6300435,269.689261 Z M56.2509908,231.344514 L50.7856429,234.674157 C48.6799535,235.843985 46.2024658,235.843985 44.2069874,234.670022 L39.5613276,232.037482 L39.4950372,232.799504 C39.0242895,237.50698 33.8379346,240.141319 29.7855042,237.757493 L29.3,237.46619 L29.3,237.8 C29.3,242.741507 23.9992439,245.85465 19.7180813,243.476216 L17.8961389,242.768243 C14.5944229,244.654938 10.3345101,243.260099 8.79204062,239.819058 L7.1265845,236.21057 L2.29127069,233.460927 C-0.538135224,231.789005 -0.67292506,227.8801 2.04893847,226.065535 L6.04049208,223.429604 L3.4452998,221.83205 C0.721239219,220.01601 0.85899696,215.883278 3.73211228,214.316212 L5.42590018,213.419529 C7.0218765,212.560157 8.9781235,212.560157 10.578073,213.42168 L17,216.917159 L17,214.7 C17,210.714911 21.1430483,208.158562 24.5878214,210.127057 L26.454131,211.169994 L26.4004588,209.130289 C26.276606,205.043146 30.7360202,202.430559 34.2105388,204.540145 L35.9,205.543263 L35.9,203.1 C35.9,199.151617 40.0995268,196.658148 43.575517,198.520293 L45.800147,199.722796 L45.8005199,195.467759 C45.9137331,191.95815 47.7521904,188.771491 50.6989637,187.134574 L54.8984262,184.703306 L51.7237169,182.879292 C48.6560186,181.217622 48.6100816,176.85361 51.5592424,175.058822 L52.966007,174.154511 C55.1921971,172.748496 58.0078029,172.748496 60.2240974,174.148342 L65.2748822,177.256517 L65.4005199,174.367759 C65.5249755,170.509635 69.6620407,168.240922 72.9051792,170.236986 L76.4819613,172.330712 L80.3113966,169.927494 C83.4555347,168.166777 87.1,170.506433 87.1,174.1 L87.1,177.01116 L91.8038611,174.431757 C94.2112937,173.056081 97.1887063,173.056081 99.6105388,174.440145 L105.497327,177.935426 L109.997864,175.235211 C113.408349,173.25493 117.591651,173.25493 121.006201,175.237584 L125.117328,177.650637 L129.940577,175.011782 C132.825494,173.519584 136.293847,173.602164 140.129999,174.952002 C143.690483,177.177304 145.907544,181.034383 145.8,185 L146.09298,188.238066 C150.160228,185.845567 155.1,188.826463 155.1,193.6 L155.1,194.329859 L156.419167,193.623188 C160.155663,191.574142 164.834864,193.997299 165.196347,198.214599 L165.40297,200.625202 L167.728659,200.214788 C170.505468,199.731865 173.1963,201.404545 174.052926,204.096796 L172.147074,204.703204 C171.590836,202.955027 169.853764,201.875225 168.073785,202.184784 L163.59703,202.974799 L163.203653,198.385401 C162.966898,195.623256 159.862759,194.015756 157.372221,195.38148 L153.1,197.67017 L153.1,193.6 C153.1,190.347675 149.818069,188.367199 147.12145,189.953282 L143.8,191.983057 L143.8,187.8 L143.800365,184.972983 C143.887552,181.747079 142.086375,178.577348 139.165274,176.708249 C136.045196,175.653692 133.15838,175.599098 130.880011,176.777262 L125.082697,179.949378 L124.593799,179.662416 L119.997864,176.964789 C117.208349,175.34507 113.791651,175.34507 111.014496,176.957493 L105.502683,180.26458 L104.989461,179.959855 L98.6038611,176.168243 C96.8112937,175.143919 94.5887063,175.143919 92.7808326,176.176812 L85.1,180.388882 L85.1,174.1 C85.1,171.991097 83.0592147,170.680964 81.3317681,171.64689 L76.5181837,174.669373 L75.9948208,174.363014 L71.8759026,171.951658 C69.9296437,170.753961 67.4747067,172.100216 67.3990562,174.443437 L67.1251405,180.743497 L65.6759026,179.851658 L59.166007,175.845489 C57.5921971,174.851504 55.6078029,174.851504 54.0407576,175.841178 L52.6199469,176.754199 C50.9543568,177.768036 50.9799761,180.201875 52.6981245,181.132894 L58.9016743,184.696636 L57.4010363,185.565426 L51.6856429,188.874157 C49.3553568,190.168761 47.890595,192.707681 47.8,195.5 L47.8,203.077283 L46.324483,202.279707 L42.6277786,200.28148 C40.4838724,199.132959 37.9,200.667133 37.9,203.1 L37.9,209.056737 L36.3894612,208.159855 L33.1810219,206.254788 C31.0563596,204.964814 28.3236647,206.565787 28.3996539,209.073693 L28.5458727,214.630008 L27.0121786,213.772943 L23.6038611,211.868243 C21.5106601,210.672128 19,212.221259 19,214.7 L19,220.282841 L17.521927,219.47832 L9.62590018,215.180471 C8.6218765,214.639843 7.3781235,214.639843 6.36788772,215.183788 L4.67885213,216.077896 C3.14779316,216.913019 3.07223904,219.179642 4.52409743,220.148342 L9.75971445,223.37026 L8.45106153,224.234465 L3.1547002,227.73205 C1.66955427,228.722148 1.74165522,230.813075 3.29430222,231.73071 L8.67341004,234.789418 L8.80795938,235.080942 L10.6125093,238.990944 C11.6766487,241.364793 14.6292058,242.33156 16.9527864,241.005573 L18.2221307,240.370901 L18.6819187,240.623784 L20.6856429,241.725843 C23.6382561,243.366183 27.3,241.215635 27.3,237.8 L27.3,233.93381 L28.8144958,234.842507 L30.8070201,236.038066 C33.5939223,237.67742 37.1793894,235.85623 37.5037594,232.61337 L37.8386188,228.762488 L39.1930126,229.529978 L45.2070201,232.938066 C46.5975342,233.756015 48.3200465,233.756015 49.7796298,232.946059 L56.1796298,229.046059 L56.8913614,230.214029 L58.1989685,230.154592 L58.2988124,232.351277 C58.46122,235.680635 62.2198249,237.661915 65.0592424,235.958822 L66.9746331,234.727499 L67.503871,235.036221 L68.7010363,235.734574 C71.7599309,237.505513 75.4982634,235.231025 75.4045619,231.741353 L75.0490189,230.319181 L87,223.246152 L87,226.4 C87,229.866609 91.099651,232.067156 94.1321123,230.216212 L95.8321123,229.316212 L96.7678877,231.083788 L95.12145,231.953282 C90.9269575,234.516583 85.2695887,231.59162 85.0093194,226.748333 L77.3509811,231.280819 L77.3701425,231.357464 L77.3989201,231.553539 C77.6368786,236.669646 72.1614842,240.048991 67.696129,237.463779 L67.0251994,237.072403 L66.1144958,237.657493 C61.9581669,240.15129 56.537538,237.293904 56.3010315,232.445408 L56.2509908,231.344514 L56.2509908,231.344514 Z M146,212.728597 L146,212.8 L145.996962,224.722112 C146.474256,230.831475 144.434775,235.797168 140.756209,239.658935 C139.601086,240.871586 138.364667,241.884179 137.126331,242.707779 C136.376071,243.206766 135.783705,243.535628 135.483215,243.675502 L101.789535,262.271984 C97.7703902,264.528346 95.6324415,266.157849 94.8982155,267.921783 C94.0038274,270.070496 95.7879977,272.410603 101.702774,275.135582 L111.502774,280.835582 L110.497226,282.564418 L100.782204,276.908541 C94.102234,273.83673 91.6232165,270.585265 93.0517845,267.153217 C94.0294871,264.804346 96.3677243,263.022187 100.816785,260.524498 L134.57262,241.895928 C134.63206,241.867829 134.760174,241.802337 134.947066,241.698581 C135.268292,241.520247 135.628813,241.301808 136.018754,241.042464 C137.139232,240.29725 138.261627,239.37804 139.308063,238.279489 C142.616264,234.806531 144.433116,230.382892 144,224.8 L144,213.396486 L134.524851,208.279905 L135.475149,206.520095 L144.422947,211.351905 L144.409739,211.328424 L154.009739,205.928424 L154.990261,207.671576 L146,212.728597 L146,212.728597 Z M199,154.5053 L199,144.920174 L214.498711,136.048498 L229.901818,144.819712 L229.799995,177.403125 L227.800005,177.396875 L227.898182,145.980288 L214.501289,138.351502 L201,146.079826 L201,161 L199,161 L199,156.817777 L185.8,149.156238 L172.00199,157.164874 L170.99801,155.435126 L185.8,146.843762 L199,154.5053 L199,154.5053 Z M235.688374,232.005259 L223.301729,224.951752 L211.001118,232.00525 L223.301745,239.144774 L235.688374,232.005259 L235.688374,232.005259 Z M250,153.467056 L237.982867,160.029604 L250.891126,166.960213 L263.081717,160.168313 L252,153.934847 L252,160 L250,160 L250,153.467056 L250,153.467056 Z M666.632667,189.03248 L684.408729,199.439073 C687.289277,201.141215 687.334855,205.379907 684.403871,207.163779 C680.284691,209.566634 680.345971,215.510779 684.501355,217.934758 L695.196139,224.131757 C700.767954,227.315651 700.767954,235.384349 695.20005,238.565996 L657.098284,260.567014 C649.186586,265.113967 647.166681,275.33231 652.31299,282.517723 L650.68701,283.682277 C644.861517,275.548571 647.148637,263.978434 656.09995,258.834004 L694.203861,236.831757 C698.432046,234.415651 698.432046,228.284349 694.198645,225.865242 L683.496129,219.663779 C678.024989,216.47228 677.944003,208.616628 683.380053,205.445801 C685.001049,204.459108 684.975651,202.097152 683.394781,201.162991 L643.594781,177.862991 L644.605219,176.137009 L664.650323,187.871962 L680.697106,178.535652 L681.702894,180.264348 L666.632667,189.03248 L666.632667,189.03248 Z M666.090811,160.14735 L666.10925,160.157918 L674.011075,155.459536 C679.094269,152.447274 685.299822,152.447274 690.283131,155.456064 L697.688925,159.859536 L698.711075,158.140464 L691.311075,153.740464 C685.700178,150.352726 678.705731,150.352726 672.990198,153.739708 L666.09075,157.842082 L658.397278,153.432409 C652.979746,150.351844 646.313779,150.264517 640.8259,153.219529 L632.657746,157.692538 L626.011075,153.740464 C620.400178,150.352726 613.405731,150.352726 607.690198,153.739708 L608.709802,155.460292 C613.794269,152.447274 619.999822,152.447274 624.983131,155.456064 L632.388925,159.859536 L632.985521,158.856169 L633.380315,159.577096 L641.780315,154.977096 C646.654552,152.352535 652.588812,152.430276 657.405698,155.16929 L664.060557,158.983666 L656.016682,163.424555 L656.983318,165.175445 L666.090811,160.14735 L666.090811,160.14735 Z M796.375129,99.4450148 C796.35947,105.430104 792.066993,110.720879 785.957115,111.78758 C781.003449,112.575663 776.310413,109.297439 775.413606,104.364399 C774.815464,100.775549 777.233865,97.2945174 780.821115,96.7161301 C783.562433,96.2177086 786.084694,97.9756486 786.58387,100.721115 L784.61613,101.078885 C784.314044,99.4174114 782.830671,98.3835453 781.159232,98.6872411 C778.660973,99.0901863 776.968242,101.526692 777.38387,104.021115 C778.082543,107.863816 781.757112,110.430611 785.627999,109.814903 C791.379926,108.810598 795.220613,103.331973 794.215437,97.5750333 C792.709279,89.1028901 784.715455,83.4840431 776.275033,84.9845625 L776.268456,84.9475663 C774.445982,85.277885 772.667419,85.9323693 770.988603,86.872506 L770.020643,87.4145639 L769.581629,86.3957208 C769.548449,86.3187172 769.474911,86.1598321 769.360588,85.9308808 C769.165883,85.5409535 768.929445,85.1042788 768.650924,84.6326819 C767.852895,83.2814415 766.881597,81.9293114 765.735951,80.6703334 C762.401983,77.006558 758.31832,74.8752811 753.418179,74.9998348 C748.309442,75.0927209 743.748743,77.2858437 740.673073,81.0343166 L739.126927,79.7656834 C742.575672,75.5625247 747.688969,73.1036717 753.374584,73.000323 C758.913093,72.8595135 763.520557,75.2641635 767.215175,79.3242667 C768.459304,80.6914699 769.509265,82.1531054 770.373018,83.6156306 C770.584972,83.9745153 770.775215,84.3160789 770.944017,84.6363472 C773.48452,83.3816975 776.218926,82.7 779,82.7 C787.63831,82.7 794.864355,89.0126511 796.240781,97.4093132 C797.542346,97.0737482 798.860329,96.9 800.2,96.9 C808.652285,96.9 815.4,103.647715 815.4,112.1 C815.4,120.518911 808.585833,127.3 800.2,127.3 C797.827272,127.3 795.61327,126.791872 793.570144,125.777155 C793.403923,125.97792 793.21254,126.202346 792.878224,126.586979 C792.812218,126.662612 792.029654,127.551994 791.859257,127.750791 L790.340743,126.449209 C790.521127,126.238762 791.313011,125.338787 791.482467,125.144313 C791.95926,124.595279 792.288213,124.196037 792.486267,123.918762 L793.011522,123.183404 L793.796139,123.631757 C795.743706,124.744652 797.872539,125.3 800.2,125.3 C807.483436,125.3 813.4,119.412157 813.4,112.1 C813.4,104.752285 807.547715,98.9 800.2,98.9 C798.908581,98.9 797.637049,99.0856047 796.375129,99.4450148 L796.375129,99.4450148 Z M639.5,135.4 L640.176405,136.13653 L654.876007,122.636896 L683.575608,96.3372608 L682.224392,94.8627392 L653.524392,121.162739 L654.2,121.9 L653.523595,121.16347 L638.824091,134.663015 L628.124588,144.46256 L629.475412,145.93744 L640.175412,136.13744 L639.5,135.4 L639.5,135.4 Z M697.372292,65.274185 L653.534567,104.353543 L654.865433,105.846457 L697.627708,67.725815 L705.703065,72.3543732 L713.674336,67.729068 L796.233467,141.545476 L797.566533,140.054524 L713.925664,65.270932 L705.696935,70.0456268 L697.372292,65.274185 Z M730.897278,131.732409 C725.445432,128.587108 718.8788,128.529506 713.3259,131.519529 L705.413648,135.852402 L698.301036,131.734574 C692.685782,128.556074 685.908361,128.556074 680.400278,131.733814 L672.809922,136.138091 L662.367036,129.837838 L690.471912,104.340631 C694.792792,100.534275 694.856405,93.9664713 690.911066,90.0091453 L702.557223,79.8536961 L701.242777,78.3463039 L687.835296,90.0376269 L688.779764,90.7844156 C692.631387,93.8298849 692.8322,99.5960806 689.138969,102.849641 L660.028088,129.259369 L659.032964,130.162162 L672.790078,138.461909 L681.401878,133.464938 C686.291639,130.643926 692.314218,130.643926 697.307402,133.470257 L704.898964,137.865426 L705.386353,138.147599 L714.280315,133.277096 C719.220584,130.61698 725.050293,130.668117 729.900278,133.466186 L738.102722,138.167591 L738.60925,138.457918 L746.511075,133.759536 C751.500178,130.747274 757.705731,130.747274 762.790198,133.760292 L770.188925,138.159536 L771.211075,136.440464 L763.811075,132.040464 C758.094269,128.652726 751.099822,128.652726 745.483131,132.043936 L738.590751,136.142082 L730.897278,131.732409 Z M700.024035,91.4922779 L703.224035,91.0922779 C705.328648,90.8821227 707.326795,89.9534067 709.054931,88.4556891 L714.060628,84.0507135 L712.739372,82.5492865 L707.739372,86.9492865 C706.315495,88.1832755 704.697607,88.9352518 703.000496,89.1049628 L699.775965,89.5077221 L700.024035,91.4922779 Z M768,150 L718,150 C714.924388,150 712,152.768421 712,155.8 L712,156.2 C712,159.15821 714.747816,161.1 718,161.1 L742.4,161.1 C743.847141,161.1 745,162.793997 745,164.8 L745,165.9 C745,167.755015 743.944928,169 742.4,169 L693.7,169 C690.635153,169 688.1,171.459476 688.1,174.5 L688.1,175.2 C688.1,178.171684 690.501905,180 693.7,180 L748,180 C749.584948,180 751.1,181.874556 751.1,183.8 L751.1,184.8 C751.1,186.574529 749.721266,188 748,188 L700.3,188 C697.408273,188 695,190.178914 695,193 L695,193.4 C695,196.187297 697.330618,198 700.3,198 L721,198 L721,196 L700.3,196 C698.34081,196 697,194.957148 697,193.4 L697,193 C697,191.33061 698.470674,190 700.3,190 L748,190 C750.841029,190 753.1,187.664454 753.1,184.8 L753.1,183.8 C753.1,180.852563 750.794504,178 748,178 L693.7,178 C691.505938,178 690.1,176.929808 690.1,175.2 L690.1,174.5 C690.1,172.577837 691.726386,171 693.7,171 L742.4,171 C745.129648,171 747,168.792985 747,165.9 L747,164.8 C747,161.816207 745.15147,159.1 742.4,159.1 L718,159.1 C715.733316,159.1 714,157.875123 714,156.2 L714,155.8 C714,153.898246 716.005189,152 718,152 L768,152 L768,150 Z M362,157 L398.8,157 C400.479386,157 402,159.139168 402,161.4 L402,161.8 C402,163.776224 400.719626,165.1 398.8,165.1 L380.6,165.1 C377.745851,165.1 375,167.646877 375,170.4 L375,171.5 C375,174.26858 377.541872,176 380.6,176 L431,176 L431,174 L380.6,174 C378.519831,174 377,172.964753 377,171.5 L377,170.4 C377,168.786457 378.818211,167.1 380.6,167.1 L398.8,167.1 C401.83939,167.1 404,164.866149 404,161.8 L404,161.4 C404,158.152357 401.759168,155 398.8,155 L362,155 L362,157 Z M776,152 L811,152 L811,150 L776,150 L776,152 Z M745.9,243 L779.2,243 C781.142653,243 782.9,245.041624 782.9,247.3 L782.9,247.5 C782.9,249.521807 781.273983,251.1 779.2,251.1 L753,251.1 L753,253.1 L779.2,253.1 C782.365411,253.1 784.9,250.639958 784.9,247.5 L784.9,247.3 C784.9,243.998082 782.319372,241 779.2,241 L745.9,241 C744.135609,241 743.022595,240.041671 743.00034,238.448845 C743.024652,236.619893 744.34917,235 745.9,235 L802,235 L802,233 L745.9,233 C743.141811,233 741.024911,235.597293 741.000218,238.449581 C741.024576,241.211857 743.084875,243 745.9,243 Z M749.300701,284.06643 C751.011294,285.043919 753.088706,285.043919 754.796139,284.068243 L760.199999,280.954161 L765.600701,284.06643 C767.311294,285.043919 769.388706,285.043919 771.096139,284.068243 L776.499999,280.954161 L781.900701,284.06643 L782.899299,282.33357 L776.5,278.645839 L770.100701,282.33357 C769.011294,282.956081 767.688706,282.956081 766.596139,282.331757 L760.699299,278.93357 L760.2,278.645839 L753.800701,282.33357 C752.711294,282.956081 751.388706,282.956081 750.296139,282.331757 L744.399299,278.93357 L743.866975,278.626807 L735.552751,284.06303 L736.647249,285.73697 L743.933025,280.973193 L749.300701,284.06643 Z M559.700701,288.06643 C561.411294,289.043919 563.488706,289.043919 565.196139,288.068243 L570.599999,284.954161 L576.000701,288.06643 C577.711294,289.043919 579.788706,289.043919 581.496139,288.068243 L586.899999,284.954161 L592.300701,288.06643 C594.011294,289.043919 596.088706,289.043919 597.796139,288.068243 L603.199999,284.954161 L608.600701,288.06643 C610.311294,289.043919 612.388706,289.043919 614.096139,288.068243 L619.505599,284.950934 L626.109156,288.671248 L627.090844,286.928752 L619.4944,282.649066 L613.100701,286.33357 C612.011294,286.956081 610.688706,286.956081 609.596139,286.331757 L603.699299,282.93357 L603.2,282.645839 L596.800701,286.33357 C595.711294,286.956081 594.388706,286.956081 593.296139,286.331757 L587.399299,282.93357 L586.9,282.645839 L580.500701,286.33357 C579.411294,286.956081 578.088706,286.956081 576.996139,286.331757 L571.099299,282.93357 L570.6,282.645839 L564.200701,286.33357 C563.111294,286.956081 561.788706,286.956081 560.696139,286.331757 L554.799299,282.93357 L554.266975,282.626807 L545.952751,288.06303 L547.047249,289.73697 L554.333025,284.973193 L559.700701,288.06643 Z M628.000701,303.76643 C629.711294,304.743919 631.788706,304.743919 633.496139,303.768243 L638.899999,300.654161 L644.300701,303.76643 C646.011294,304.743919 648.088706,304.743919 649.796139,303.768243 L655.199999,300.654161 L660.600701,303.76643 C662.311294,304.743919 664.388706,304.743919 666.096139,303.768243 L671.499999,300.654161 L676.900701,303.76643 C678.611294,304.743919 680.688706,304.743919 682.396139,303.768243 L687.799999,300.654161 L693.200701,303.76643 L694.199299,302.03357 L687.8,298.345839 L681.400701,302.03357 C680.311294,302.656081 678.988706,302.656081 677.896139,302.031757 L671.999299,298.63357 L671.5,298.345839 L665.100701,302.03357 C664.011294,302.656081 662.688706,302.656081 661.596139,302.031757 L655.699299,298.63357 L655.2,298.345839 L648.800701,302.03357 C647.711294,302.656081 646.388706,302.656081 645.296139,302.031757 L639.399299,298.63357 L638.9,298.345839 L632.500701,302.03357 C631.411294,302.656081 630.088706,302.656081 628.996139,302.031757 L623.099299,298.63357 L622.566975,298.326807 L614.252751,303.76303 L615.347249,305.43697 L622.633025,300.673193 L628.000701,303.76643 Z M648.110551,196.272032 L649.089449,194.527968 L607.790649,171.348004 L590.996459,181.136029 L592.003541,182.863971 L607.809351,173.651996 L648.110551,196.272032 Z M598.988294,171.659161 L600.011706,169.940839 L558.684433,145.326802 L538.865677,157.854719 L539.934323,159.545281 L558.715567,147.673198 L598.988294,171.659161 Z M865.399812,139.265917 L866.400188,137.534083 L833.692192,118.640645 L809.688195,132.940898 L810.711805,134.659102 L833.707808,120.959355 L865.399812,139.265917 Z M781.690862,264.239315 C774.864673,268.277342 766.455683,268.330229 759.709138,264.339315 L753.608254,260.738793 C750.162396,258.737943 745.96961,258.768326 742.577438,260.847399 L723.781497,272.244924 L724.818503,273.955076 L743.618503,262.555076 C746.384925,260.85954 749.790765,260.83486 752.597864,262.464789 L758.691746,266.061207 C766.069624,270.425587 775.259029,270.367792 782.709138,265.960685 L781.690862,264.239315 Z M730.401878,208.564938 L738.501878,203.864938 L737.498122,202.135062 L729.398122,206.835062 L730.401878,208.564938 Z M563.577536,197.552661 L583.977536,210.052661 L585.022464,208.347339 L564.622464,195.847339 L563.577536,197.552661 Z M780,160 L758.7,160 C755.757979,160 753,162.836779 753,165.8 L753,165.9 C753,168.795363 755.660769,171 758.7,171 L774,171 L774,169 L758.7,169 C756.690955,169 755,167.598923 755,165.9 L755,165.8 C755,163.928936 756.875354,162 758.7,162 L780,162 L780,160 Z M271.415012,338.763427 L297.722252,322.652791 L296.677748,320.947209 L271.384988,336.436573 L257.208164,328.249957 L235.412271,340.427005 L236.387729,342.172995 L257.191836,330.550043 L271.415012,338.763427 Z M317.006175,240.169561 L325.106175,244.769561 L326.093825,243.030439 L317.993825,238.430439 L317.006175,240.169561 Z M253,303 L253,269 L251,269 L251,303 L253,303 Z M259,303 L259,281 L257,281 L257,303 L259,303 Z M215.7,173.5 L215.7,156.9 L213.7,156.9 L213.7,173.5 L215.7,173.5 Z M244,257 L244,308 L246,308 L246,257 L244,257 Z M264,269 L279.1,269 C281.871714,269 284,267.394451 284,264.8 L284,264.6 C284,261.861124 281.703041,259 279.1,259 L260.2,259 C258.303382,259 257,258.151768 257,256.9 L257,256 C257,254.465295 258.539801,253 260.2,253 L286.2,253 C288.877298,253 291,251.031677 291,248.4 L291,247.7 C291,245.058348 288.863978,243 286.2,243 L247,243 L247,245 L286.2,245 C287.775645,245 289,246.179833 289,247.7 L289,248.4 C289,249.89196 287.805054,251 286.2,251 L260.2,251 C257.456809,251 255,253.337931 255,256 L255,256.9 C255,259.481566 257.333204,261 260.2,261 L279.1,261 C280.489917,261 282,262.880981 282,264.6 L282,264.8 C282,266.147654 280.870146,267 279.1,267 L264,267 L264,269 Z M266,282 L264,282 L264,291.618034 L273.247214,286.994427 L272.352786,285.205573 L266,288.381966 L266,282 Z M281.665982,172.900074 L279.934018,171.899926 L274.991955,180.458131 L284.775316,180.699695 L284.824684,178.700305 L278.408045,178.541869 L281.665982,172.900074 Z M158.790844,147.228752 L157.809156,148.971248 L166.379096,153.799383 L166.499924,144.012345 L164.500076,143.987655 L164.420904,150.400617 L158.790844,147.228752 Z M63.5432941,249.731035 C60.4031173,246.228528 54.6121826,247.687313 53.5269197,252.269534 L53.423972,252.742928 L48.9247027,248.010938 C47.4256581,246.511445 45.3652347,245.857342 43.3709607,246.326583 C38.8765205,247.419796 37.3540393,252.987727 40.7058644,256.219844 L40.9839969,256.49802 L40.1303701,256.737036 C35.5267683,258.035486 33.9530092,263.709302 37.1567059,267.268965 L38.6737375,268.945688 L38.2464173,270.298869 C36.6022736,275.230902 41.1854515,279.98703 46.1747211,278.561524 L46.3547731,278.507516 C45.0943711,283.1483 49.187635,287.511065 54.0095291,286.477802 L53.5904709,284.522198 C50.1596839,285.257366 47.2842534,282.091488 48.3510341,278.809086 L48.8486833,277.316228 L49.457892,275.488602 L45.6126521,276.642174 C42.1789069,277.623154 39.0094086,274.334052 40.1486833,270.916228 L40.7535827,269.001131 L40.9262627,268.454311 L38.6415358,265.929087 C36.4229983,263.46404 37.5072825,259.55491 40.6714602,258.66245 L43.1696299,257.962964 L44.8161515,257.501938 L42.1071068,254.792893 C39.8793455,252.644465 40.8782861,248.991197 43.8363516,248.271668 C45.1256437,247.968334 46.4859698,248.400183 47.4928932,249.407107 L53.2752973,255.489062 L54.5761413,256.857191 L55.4771764,252.71243 C56.1855102,249.722429 59.9901832,248.764 62.0554306,251.067545 L63.8567059,253.068965 L64.2701488,253.528346 L67.765929,252.563993 C70.6252438,251.76974 73.3074517,254.480789 72.4436484,257.307781 L71.6360074,260.234071 L73.5639926,260.765929 L74.3639926,257.865929 C75.6840134,253.547143 71.6031289,249.422379 67.2323561,250.636482 L64.9298514,251.271654 L63.5432941,249.731035 Z M56.8011876,216.351277 L56.7761022,216.903127 C52.5369685,214.537753 47.1,217.632419 47.1,222.6 L47.1,224 L49.1,224 L49.1,222.6 C49.1,219.111566 53.0186328,216.944444 55.97855,218.753282 L57.196129,219.463779 L58.623912,220.296652 L58.7989685,216.445408 C58.9617808,213.107869 62.7194364,211.156219 65.5678285,212.946637 L65.6771145,213.006183 L67.1771145,213.706183 L68.0228855,211.893817 L66.5771193,211.219126 C62.4418858,208.674815 57.0377113,211.502543 56.8011876,216.351277 Z M610.6,355.9 L578,355.9 L578,357.9 L610.6,357.9 C614.63657,357.9 617.844347,355.209828 617.899284,351.399524 C617.843129,347.461003 614.493537,344 610.6,344 L556.4,344 C554.341612,344 553,342.636749 553,340.5 C553,337.979239 554.490538,336 556.4,336 L650.5,336 C653.822549,336 656,334.099051 656,330.9 L656,329.9 C656,326.653782 653.677941,324 650.5,324 L627.6,324 C625.540753,324 624,322.435902 624,320.3 L624,319.3 C624,317.03108 625.650252,315 627.6,315 L703.2,315 L711.451863,315.398841 C713.43542,315.4 715,317.233492 715,319.5 L715,320.3 C715,322.598751 713.807892,324 711.8,324 L672.3,324 C668.994051,324 666,326.690856 666,329.9 L666,330.7 C666,333.855278 668.871747,336 672.3,336 L737,336 L737,334 L672.3,334 C669.870626,334 668,332.60295 668,330.7 L668,329.9 C668,327.845852 670.053836,326 672.3,326 L711.8,326 C714.990615,326 717,323.638091 717,320.3 L717,319.5 C717,316.19307 714.61658,313.4 711.5,313.4 L703.248137,313.001159 L627.6,313 C624.443498,313 622,316.007382 622,319.3 L622,320.3 C622,323.533795 624.429396,326 627.6,326 L650.5,326 C652.509559,326 654,327.703361 654,329.9 L654,330.9 C654,332.929521 652.773815,334 650.5,334 L556.4,334 C553.242795,334 551,336.978138 551,340.4 C551,343.734219 553.229816,346 556.4,346 L610.6,346 C613.369724,346 615.841448,348.545335 615.898975,351.398423 C615.844165,354.025354 613.596215,355.9 610.6,355.9 Z M836.499984,310.905587 C836.5,309.390283 834.973573,308.394787 833.606081,308.980855 L826.945846,311.795025 L808.664184,302.214261 L807.735816,303.985739 L826.854155,314.004975 L834.389217,310.821146 C834.446542,310.796592 834.5,310.831456 834.5,310.9 L834.400016,328.794413 L834.396868,329.357852 L842.377171,334.252438 L843.422829,332.547562 L836.403132,328.242148 L836.499984,310.905587 Z M634,252 L592.9,252 C589.769473,252 587,254.923333 587,258.1 L587,258.4 C587,261.51848 589.707113,264 592.9,264 L615.6,264 C617.447715,264 619,265.552285 619,267.4 L619,268.1 C619,269.812757 617.592897,271 615.6,271 L590,271 L590,273 L615.6,273 C618.629326,273 621,270.999743 621,268.1 L621,267.4 C621,264.447715 618.552285,262 615.6,262 L592.9,262 C590.774706,262 589,260.373187 589,258.4 L589,258.1 C589,256.004445 590.898948,254 592.9,254 L634,254 L634,252 Z M700.606987,247.370022 C702.931004,248.686965 702.931004,252.013035 700.606987,253.329978 L691.393799,258.737584 C680.215628,265.338024 680.253521,281.593996 691.501222,288.06673 L715.699246,302.065589 L716.700754,300.334411 L692.500754,286.334411 C682.582191,280.626555 682.548757,266.283006 692.408453,260.46109 L701.606201,255.062416 C705.268996,252.986965 705.268996,247.713035 701.593013,245.629978 L700.606987,247.370022 Z M716.605179,291.036986 L708.405179,286.236986 C698.548757,280.416994 698.582191,266.073445 708.498778,260.36673 L712.498471,258.066906 C718.467086,254.575861 718.467086,245.911529 712.492598,242.529743 L707.394302,239.63071 C705.080829,238.31974 705.053024,234.983243 707.305719,233.662698 L709.814496,232.157493 C713.36476,230.076364 713.36476,224.823636 709.805719,222.737302 L693.322077,212.647102 L692.277923,214.352898 L708.777923,224.452898 C711.03524,225.776364 711.03524,229.123636 708.794281,230.437302 L706.285504,231.942507 C702.711316,234.03766 702.755175,239.300662 706.406987,241.370022 L711.505698,244.26929 C716.132914,246.888471 716.132914,253.624139 711.495117,256.336812 L707.501529,258.633094 C696.253521,265.106004 696.215628,281.361976 707.391547,287.96109 L715.594821,292.763014 L716.605179,291.036986 Z M722.194281,231.737302 C718.604803,233.841478 718.560949,239.103934 722.206987,241.170022 L727.280585,244.254522 C732.049246,246.904651 732.112141,253.728853 727.402132,256.432747 L718.701716,261.432986 C709.553157,266.70686 709.514679,279.866267 718.596129,285.163779 L731.693268,292.862103 L732.706732,291.137897 L719.606732,283.437897 C711.849709,278.91296 711.882576,267.672541 719.699428,263.166355 L728.398284,258.167014 C734.459896,254.6872 734.37901,245.911047 728.285643,242.525843 L723.219415,239.445478 C720.902916,238.132256 720.930715,234.796321 723.205719,233.462698 L722.194281,231.737302 Z M683.694821,253.736986 L675.494821,258.536986 C664.335131,265.126508 664.335131,281.279772 675.497666,287.764674 L675.7453,287.93205 L676.8547,286.26795 L676.5547,286.06795 C666.664869,280.320228 666.664869,266.073492 676.508453,260.26109 L684.705179,255.463014 L683.694821,253.736986 Z M729.457919,201.003025 L715.457919,207.903025 C710.942435,210.160748 710.898803,216.487447 715.324483,218.879707 L723.727779,223.38148 L731.48389,228.056522 C734.329949,229.845683 734.24343,233.99858 731.314357,235.625843 L732.285643,237.374157 C736.550247,235.004933 736.676221,228.958194 732.532172,226.353363 L724.71611,221.643478 L716.272221,217.11852 C713.264781,215.492869 713.294243,211.220912 716.347214,209.694427 L730.342081,202.796975 L729.457919,201.003025 Z M206.093985,328.562525 C213.870536,333.124768 223.456856,333.067365 231.306015,328.462525 L261.812424,310.258733 L260.787576,308.541267 L230.287576,326.741267 C223.065803,330.978009 214.253686,331.030776 207.106015,326.837475 L206.093985,328.562525 Z M158.596139,237.131757 C155.840849,235.557305 152.413605,237.616634 152.40004,240.781147 C149.629979,239.593068 146.476421,241.630515 146.600799,244.739968 L146.644397,245.225533 L141.534254,247.915082 L142.465746,249.684918 L148.756314,246.374093 L148.595893,244.609464 C148.530734,242.948368 150.376232,241.865676 151.891271,242.760927 L152.885504,243.357493 L154.4,244.26619 L154.4,240.8 C154.4,239.142302 156.192619,238.061819 157.603861,238.868243 L159.501016,239.952332 L166.097669,236.167367 C172.488315,232.542836 180.25791,232.127072 187.006081,235.019145 L187.793919,233.180855 C180.472715,230.043196 172.046574,230.494093 165.10666,234.430163 L159.498985,237.647669 L158.596139,237.131757 Z M158.103861,278.568243 C160.232329,279.989733 163.191166,278.76567 163.861367,276.406932 C166.212491,277.429083 169,275.610342 169,272.9 L169,272.618034 L169.247214,272.494427 C171.843808,271.128044 171.892756,267.456961 169.42145,265.946718 L169.014803,265.720376 L169.099688,262.324992 C169.1,260.924599 168.392953,259.696571 167.185643,259.025843 L164.978852,257.822104 C163.78362,257.158052 162.41638,257.158052 161.214357,257.825843 L158.1563,259.660116 L157.647214,259.405573 C155.438425,258.17749 152.597834,259.53755 152.082134,261.923754 L149.996139,260.731757 C148.78362,260.058052 147.41638,260.058052 146.214357,260.725843 L143.822761,261.984395 C143.339891,259.500306 140.684146,258.175386 138.4453,259.66795 C135.946032,258.306451 133,260.069052 133,262.9 L133,263.018434 L127.705476,266.030836 C125.233627,267.540838 125.043133,271.064971 127.47855,272.553282 L127.7,272.679977 L127.7,273 C127.7,275.884517 130.85729,277.759158 133.32145,276.253282 L134.129999,275.747998 L133.070001,274.052002 L132.270001,274.552002 C131.171241,275.223407 129.7,274.349858 129.7,273 L129.7,271.519677 L128.496139,270.831757 C127.414425,270.170203 127.504883,268.49674 128.72145,267.753282 L134.494524,264.469164 L135,264.181566 L135,262.9 C135,261.561342 136.361628,260.770719 137.47855,261.453282 L138.0453,261.83205 L138.808138,262.340609 L139.673477,261.258935 C140.738434,260.656651 141.9,261.403827 141.9,262.8 L141.9,265.256364 L147.165746,262.484918 C147.78362,262.141948 148.41638,262.141948 149.014357,262.474157 L152.503861,264.468243 L154,265.32318 L154,262.7 C154,261.39693 155.550626,260.52764 156.714357,261.174157 L157.752786,261.694427 L158.243779,261.939923 L162.214496,259.557493 C162.78362,259.241948 163.41638,259.241948 164.014357,259.574157 L166.221148,260.777896 C166.780314,261.088578 167.1,261.643822 167.1,262.3 L167.000312,266.275008 L166.985183,266.880172 L168.414357,267.674157 C169.542953,268.364861 169.519937,270.091038 168.334254,270.715082 L167.552786,271.105573 L167,271.381966 L167,272.9 C167,274.249858 165.528759,275.123407 164.42145,274.446718 L163.485643,273.925843 L162,273.100486 L162,275.4 C162,276.773231 160.313577,277.640534 159.1547,276.86795 L153.496139,273.631757 L152,272.77682 L152,275.4 C152,276.751254 150.706817,277.548717 149.585643,276.925843 L148.896139,276.531757 L147.903861,278.268243 L148.603861,278.668243 C150.853703,279.918231 153.45274,278.565124 153.924589,276.180088 L158.103861,278.568243 Z M140.636875,288.943661 C142.871685,287.688275 142.769325,284.310398 140.490261,283.028424 L140.261951,282.9 L140.137375,282.9 C139.162023,282.460068 137.927459,282.503987 137.003861,283.031757 L134.680108,284.315865 C134.425598,281.883384 131.777168,280.427653 129.532112,281.616212 L128.800343,282.042496 L128.103871,281.636221 C125.901543,280.397276 123.224441,281.826928 123.013332,284.286558 C120.76219,283.094987 118.037826,284.655009 117.901382,287.247441 L117.900612,288.112966 L117.241021,288.366654 L117.070001,288.452002 C114.90089,289.807696 114.844821,292.511871 116.901793,293.937279 C117.838893,295.137389 119.02081,295.107629 120.447214,294.394427 L124.337969,292.49899 L123.462031,290.70101 L119.562031,292.60101 C118.841302,292.961315 118.653576,292.961315 118.419232,292.626538 L118.302546,292.459844 L118.129999,292.352002 C117.181743,291.759341 117.157313,290.806952 118.05671,290.195757 L119.9,289.486799 L119.9,287.3 C119.95926,286.200364 121.150139,285.531801 122.109739,286.071576 L123.503861,286.868243 L125,287.72318 L125,284.6 C125,283.491859 126.15264,282.833208 127.109739,283.371576 L128.296129,284.063779 L128.8,284.357704 L130.503871,283.363779 C131.50075,282.836979 132.7,283.552321 132.7,284.7 L132.7,287.695173 L137.983686,284.775242 C138.388706,284.543919 139.011294,284.543919 139.403861,284.768243 L139.634436,284.9 C140.459777,285.505185 140.437281,286.762932 139.609739,287.228424 L138.463125,287.956339 L138,288.251054 L138,290.2 C138,291.215294 136.640576,291.962977 135.690261,291.428424 L134.122885,290.693817 L133.277115,292.506183 L134.777115,293.206183 C136.968412,294.442079 140,292.774706 140,290.2 L140,289.348946 L140.636875,288.943661 Z M381.7,354 L355,354 L355,356 L381.7,356 C385.401089,356 387.855013,353.613385 387.899388,349.999909 C387.853414,346.241366 385.222243,343 381.7,343 L330,343 C328.021723,343 326.9,341.917635 326.9,340 L326.9,339.4 C326.9,337.426385 328.170374,336 330,336 L411.7,336 C414.647878,336 416.9,333.560201 416.9,330.5 L416.9,330.2 C416.9,326.988696 414.667936,324 411.7,324 L369.8,324 C367.610657,324 366,322.859118 366,321.2 L366,320.8 C366,318.852285 367.852285,317 369.8,317 L396,317 L396,315 L369.8,315 C366.747715,315 364,317.747715 364,320.8 L364,321.2 C364,324.140882 366.624637,326 369.8,326 L411.7,326 C413.415608,326 414.9,327.987575 414.9,330.2 L414.9,330.5 C414.9,332.489799 413.505969,334 411.7,334 L330,334 C327.010876,334 324.9,336.370106 324.9,339.4 L324.9,340 C324.9,343.038505 326.932822,345 330,345 L381.7,345 C384.011826,345 385.855242,347.263337 385.899197,349.99997 C385.85888,352.498552 384.302214,354 381.7,354 Z M452.696809,299.564175 L453.703191,297.835825 L445.327921,292.959085 L436.739683,297.412245 L437.660317,299.187755 L445.272079,295.240915 L452.696809,299.564175 Z M200.6,280.7 C200.6,272.690125 196.35172,265.34175 189.408729,261.239073 L178.402894,254.835652 L177.397106,256.564348 L188.397106,262.964348 C194.72897,266.705931 198.6,273.401766 198.6,280.7 L200.6,280.7 Z M471,252 L455.1,252 C452.472705,252 450,254.715922 450,257.4 L450,258 C450,260.615005 452.192749,262.5 454.9,262.5 L454.9,260.5 C453.235823,260.5 452,259.437626 452,258 L452,257.4 C452,255.780799 453.621324,254 455.1,254 L471,254 L471,252 Z M400.2,254 L439.9,254 C441.423701,254 443,255.627981 443,257.2 L443,258 C443,259.214868 441.751841,260 439.9,260 L428.6,260 C426.014469,260 424.1,262.774026 424.1,265.6 L424.1,266.4 C424.1,269.064961 425.959155,271 428.6,271 L443,271 L443,269 L428.6,269 C427.082021,269 426.1,267.977896 426.1,266.4 L426.1,265.6 C426.1,263.754545 427.310883,262 428.6,262 L439.9,262 C442.71739,262 445,260.564165 445,258 L445,257.2 C445,254.537592 442.542966,252 439.9,252 L400.2,252 C398.485789,252 397.104608,251.016464 397.005672,249.746185 C397.109849,248.328244 398.632509,247 400.2,247 L478,247 L478,245 L400.2,245 C397.564762,245 395.095919,247.188252 395.002725,249.750188 C395.09421,252.262629 397.475931,254 400.2,254 Z M491.213472,247.732872 C488.132499,246.392921 484.606692,248.537351 484.318876,251.949088 L484.067888,251.816212 C480.683496,250.061301 476.674991,252.466404 476.800555,256.233315 L476.800234,257.02406 L428.197992,285.235137 L429.202008,286.964863 L478.8,258.175804 L478.8,256.2 C478.725662,253.953204 481.098623,252.529427 483.139683,253.587755 L484.832112,254.483788 L486.3,255.260905 L486.3,252.4 C486.3,250.04176 488.785093,248.572082 490.790198,249.760292 L491.714357,250.274157 L493.2,251.099514 L493.2,248 C493.275275,245.758416 495.679594,244.358099 497.600278,245.466186 L498.526538,246.119232 L500.1,247.220656 L500.1,244 C500.1,241.796701 502.743494,240.337272 504.700278,241.466186 L506.182619,242.257378 L527.238978,256.527801 L528.361022,254.872199 L507.261022,240.572199 L505.670588,239.717647 C502.572612,237.929741 498.484113,240.03082 498.125376,243.5045 C494.995566,242.150051 491.478203,244.310073 491.213472,247.732872 Z M461.2,289.4 L531.2,289.4 C533.922075,289.4 536.1,287.183183 536.1,284.5 L536.1,284 C536.1,281.447715 534.052285,279.4 531.5,279.4 L518.1,279.4 C516.452285,279.4 515.1,278.047715 515.1,276.4 L515.1,275.8 C515.1,274.452285 516.152285,273.4 517.5,273.4 L581.1,273.4 L581.1,271.4 L517.5,271.4 C515.047715,271.4 513.1,273.347715 513.1,275.8 L513.1,276.4 C513.1,279.152285 515.347715,281.4 518.1,281.4 L531.5,281.4 C532.947715,281.4 534.1,282.552285 534.1,284 L534.1,284.5 C534.1,286.08646 532.809504,287.4 531.2,287.4 L461.2,287.4 C459.48388,287.4 458.127897,285.899973 458.100425,284.057057 C458.128669,282.630061 459.560659,281.4 461.2,281.4 L500.6,281.4 C503.052285,281.4 505.1,279.352285 505.1,276.9 L505.1,275.7 C505.1,272.747715 502.752285,270.4 499.8,270.4 L494.1,270.4 C492.452285,270.4 491.1,269.047715 491.1,267.4 C491.1,265.752285 492.452285,264.4 494.1,264.4 L556.1,264.4 L556.1,262.4 L494.1,262.4 C491.347715,262.4 489.1,264.647715 489.1,267.4 C489.1,270.152285 491.347715,272.4 494.1,272.4 L499.8,272.4 C501.647715,272.4 503.1,273.852285 503.1,275.7 L503.1,276.9 C503.1,278.247715 501.947715,279.4 500.6,279.4 L461.2,279.4 C458.513191,279.4 456.128249,281.458413 456.100249,284.053813 C456.12712,286.956188 458.325393,289.4 461.2,289.4 Z M406,271 L415.6,271 C418.31798,271 420,269.098586 420,266.3 L420,265.8 C420,262.783128 418.269947,260 415.6,260 L402,260 L402,262 L415.6,262 C416.913836,262 418,263.747307 418,265.8 L418,266.3 C418,268.044892 417.155097,269 415.6,269 L406,269 L406,271 Z M426.19738,227.664507 L430.49738,230.164507 C431.968577,230.967402 433.771496,230.930608 435.073462,230.019232 L437.346268,228.537611 C438.109309,228.052113 438.990691,228.052113 439.763125,228.543661 L442.400278,230.066186 C443.696519,230.844102 445.374141,230.844102 446.778852,230.077896 L451.392057,227.470563 L450.407943,225.729437 L445.807943,228.329437 C445.025859,228.755898 444.103481,228.755898 443.414496,228.342507 L440.799722,226.833814 C439.409309,225.947887 437.690691,225.947887 436.263125,226.856339 L433.953732,228.362389 C433.270546,228.839962 432.281915,228.860139 431.478852,228.422104 L427.20262,225.935493 L426.19738,227.664507 Z M468,213 L489.1,213 C491.878715,213 494,211.030236 494,208.3 L494,208.2 C494,205.444563 491.75258,203 489.1,203 L455,203 L455,205 L489.1,205 C490.608711,205 492,206.513332 492,208.2 L492,208.3 C492,209.891193 490.8059,211 489.1,211 L468,211 L468,213 Z M581,302 L607,302 L607,300 L581,300 L581,302 Z M525,302 L574,302 L574,300 L525,300 L525,302 Z M200.190535,252.728579 L185.090535,244.228579 C180.073809,241.453337 174.118497,241.367028 169.038066,244.013086 L165.941357,245.611379 L166.858643,247.388621 L169.958643,245.788621 C174.446308,243.451303 179.691217,243.527316 184.115939,245.975034 L199.209465,254.471421 L200.190535,252.728579 Z M211,299 L211,318 L213,318 L213,299 L211,299 Z M394.2,299.2 L421,299.2 L421,297.2 L394.2,297.2 C391.253507,297.2 389.048084,299.963038 389.000776,303.097182 C389.047496,306.016888 391.199348,308.1 394.2,308.1 L431.9,308.1 C433.670198,308.1 435,309.75642 435,311.9 C435,313.787536 433.80844,315 431.9,315 L402,315 L402,317 L431.9,317 C434.92087,317 437,314.884394 437,311.9 C437,308.736563 434.883323,306.1 431.9,306.1 L394.2,306.1 C392.29655,306.1 391.043766,304.900717 391.001124,303.095583 C391.046718,300.978489 392.473649,299.2 394.2,299.2 Z M422.599428,288.133645 L414.099428,283.233645 C410.384669,281.157648 405.815331,281.157648 402.112179,283.227057 L391.302132,289.432747 L392.297868,291.167253 L403.097868,284.967253 C406.184669,283.242352 410.015331,283.242352 413.112179,284.972943 L421.600572,289.866355 L422.599428,288.133645 Z M645.195318,240.731288 L644.204682,242.468712 L656.113664,249.258921 L667.415662,242.456792 L666.384338,240.743208 L656.086336,246.941079 L645.195318,240.731288 Z M440.398585,166.333159 L383.198585,133.433159 C379.756632,131.434596 375.575506,131.374 372.197864,133.335211 L325.208859,159.82892 L326.191141,161.57108 L373.191141,135.07108 C375.949003,133.469834 379.364012,133.519326 382.197864,135.164789 L439.401415,168.066841 L440.398585,166.333159 Z M120.410514,152.872011 L168.510514,179.872011 L169.489486,178.127989 L121.389486,151.127989 L120.410514,152.872011 Z M214.376624,180.520893 L206.076624,176.020893 C201.025557,173.334119 194.951051,173.480846 190.080053,176.445801 L168.781965,189.34464 L169.818035,191.05536 L191.118035,178.15536 C195.384486,175.558392 200.70668,175.429837 205.130387,177.782872 L213.423376,182.279107 L214.376624,180.520893 Z M634,271 L636,271 L636,263.072037 L627.247906,267.50803 L628.152094,269.29197 L634,266.327963 L634,271 Z M516,193 L486.5,193 C484.525571,193 483,191.52137 483,189.6 L483,189.3 C483,187.200948 484.793365,185 486.5,185 L503.7,185 C506.863081,185 509,183.283458 509,180.3 L509,179.9 C509,176.760514 506.693269,174 503.7,174 L438,174 L438,176 L503.7,176 C505.501251,176 507,177.793584 507,179.9 L507,180.3 C507,182.07064 505.843042,183 503.7,183 L486.5,183 C483.588116,183 481,186.176324 481,189.3 L481,189.6 C481,192.640169 483.434747,195 486.5,195 L516,195 L516,193 Z M493,166 L532.1,166 C534.05785,166 536,168.157944 536,170.3 L536,170.6 C536,172.547542 534.253484,174.1 532.1,174.1 L522.9,174.1 C519.721856,174.1 517,176.670642 517,179.8 L517,180.7 C517,183.630999 519.623314,186.1 522.6,186.1 L582,186.1 C585.233249,186.1 588,183.371149 588,180.2 L588,180 C588,176.771708 585.279208,174.2 582,174.2 L550.7,174.2 C548.638597,174.2 547,172.633694 547,170.7 L547,170.4 C547,168.228519 548.768452,166.2 550.7,166.2 L574,166.2 L574,164.2 L550.7,164.2 C547.598214,164.2 545,167.180305 545,170.4 L545,170.7 C545,173.758953 547.55371,176.2 550.7,176.2 L582,176.2 C584.199053,176.2 586,177.902265 586,180 L586,180.2 C586,182.260358 584.134807,184.1 582,184.1 L522.6,184.1 C520.701686,184.1 519,182.498413 519,180.7 L519,179.8 C519,177.801581 520.801673,176.1 522.9,176.1 L532.1,176.1 C535.309016,176.1 538,173.708014 538,170.6 L538,170.3 C538,167.097611 535.21215,164 532.1,164 L493,164 L493,166 Z M902.5,280 L876,280 L876,282 L902.5,282 C904.938114,282 906.973857,284.224754 906.99975,286.849362 C906.974984,289.293448 905.110744,291 902.5,291 L864,291 L864,293 L902.5,293 C906.182114,293 908.974239,290.435571 908.999823,286.849728 C908.973807,283.16084 906.087407,280 902.5,280 Z M876,272 L932.4,272 C935.549899,272 938,269.988723 938,267 L938,266.7 C938,263.635534 935.440858,261 932.4,261 L890.5,261 C888.497603,261 887,259.594557 887,257.7 L887,257.3 C887,255.156014 888.730134,253 890.5,253 L917,253 L917,251 L890.5,251 C887.516779,251 885,254.136294 885,257.3 L885,257.7 C885,260.72852 887.42043,263 890.5,263 L932.4,263 C934.32291,263 936,264.727153 936,266.7 L936,267 C936,268.787396 934.522828,270 932.4,270 L876,270 L876,272 Z M863.3,244 L883.7,244 C886.542161,244 889.009879,242.104507 889.485212,239.371341 C889.970685,235.976275 887.346864,233 884,233 L838,233 L838,235 L884,235 C886.137347,235 887.817572,236.905927 887.510051,239.058579 C887.212812,240.76502 885.605009,242 883.7,242 L863.3,242 C860.297718,242 858.023978,244.665156 858.000188,247.849543 C858.023366,250.893136 860.182735,253 863.3,253 L873.8,253 C875.625818,253 877,254.800652 877,257.1 L877,258 C877,259.877911 875.917986,261 874.1,261 L856,261 L856,263 L874.1,263 C877.039157,263 879,260.966533 879,258 L879,257.1 C879,253.7959 876.866287,251 873.8,251 L863.3,251 C861.280102,251 860.021305,249.778893 860.000268,247.849267 C860.022933,245.704295 861.481055,244 863.3,244 Z M755.840426,312.760677 L732.651212,324.406362 L733.548788,326.193638 L755.759574,315.039323 L777.481684,327.952467 L797.636595,316.822143 L807.174639,321.305024 L808.025361,319.494976 L797.563405,314.577857 L777.518316,325.647533 L755.840426,312.760677 Z M333.409683,142.387772 L300.009683,127.387772 L299.190317,129.212228 L332.590317,144.212228 L333.409683,142.387772 Z M349.783442,135.024624 L299.083442,107.024624 L298.116558,108.775376 L348.816558,136.775376 L349.783442,135.024624 Z M342.758553,114.270531 L317.958553,97.5705314 L316.841447,99.2294686 L341.641447,115.929469 L342.758553,114.270531 Z M363.758376,128.370412 L348.158376,117.870412 L347.041624,119.529588 L362.641624,130.029588 L363.758376,128.370412 Z M382.331869,127.324925 L320.631869,77.0249245 L319.368131,78.5750755 L381.068131,128.875075 L382.331869,127.324925 Z M388.698036,120.712212 L402.598036,134.412212 L404.001964,132.987788 L390.101964,119.287788 L388.698036,120.712212 Z M342.698353,75.412525 L381.998353,114.112525 L383.401647,112.687475 L344.101647,73.987475 L342.698353,75.412525 Z M346.334892,52.4439024 L405.834892,123.143902 L407.365108,121.856098 L347.865108,51.1560976 L346.334892,52.4439024 Z M382.531219,68.4440548 L372.231219,53.0440548 L370.568781,54.1559452 L380.868781,69.5559452 L382.531219,68.4440548 Z M415.728334,117.539765 L385.428334,72.7397653 L383.771666,73.8602347 L414.071666,118.660235 L415.728334,117.539765 Z M378.620465,31.5758333 L419.520465,107.175833 L421.279535,106.224167 L380.379535,30.6241667 L378.620465,31.5758333 Z M416.873964,73.3774363 L425.473964,94.4774363 L427.326036,93.7225637 L418.726036,72.6225637 L416.873964,73.3774363 Z M401.775,36.5799664 L413.975,66.2799664 L415.825,65.5200336 L403.625,35.8200336 L401.775,36.5799664 Z M437.959018,87.0166539 L417.159018,16.6166539 L415.240982,17.1833461 L436.040982,87.5833461 L437.959018,87.0166539 Z M444.623813,66.7169305 L447.423813,79.3169305 L449.376187,78.8830695 L446.576187,66.2830695 L444.623813,66.7169305 Z M436.819091,25.594466 L443.619091,59.894466 L445.580909,59.505534 L438.780909,25.205534 L436.819091,25.594466 Z M431.819419,0.496116135 L436.019419,21.4961161 L437.980581,21.1038839 L433.780581,0.103883865 L431.819419,0.496116135 Z M462.695827,71.9087425 L456.995827,9.70874251 L455.004173,9.89125749 L460.704173,72.0912575 L462.695827,71.9087425 Z M475.6,63.8 L475.6,74 L477.6,74 L477.6,63.8 L475.6,63.8 Z M475.6,40.6 L475.6,59.6 L477.6,59.6 L477.6,40.6 L475.6,40.6 Z M475.700004,0.297282619 L475.600004,37.0972826 L477.599996,37.1027174 L477.699996,0.302717381 L475.700004,0.297282619 Z M496.30437,9.80661026 L490.40437,72.7066103 L492.39563,72.8933897 L498.29563,9.99338974 L496.30437,9.80661026 Z M510.081038,56.2938148 L518.181038,15.2938148 L516.218962,14.9061852 L508.118962,55.9061852 L510.081038,56.2938148 Z M505.681812,79.3898532 L509.181812,61.2898532 L507.218188,60.9101468 L503.718188,79.0101468 L505.681812,79.3898532 Z M517.558173,85.6861893 L537.958173,17.3861893 L536.041827,16.8138107 L515.641827,85.1138107 L517.558173,85.6861893 Z M529.074748,85.0206467 L524.974748,95.0206467 L526.825252,95.7793533 L530.925252,85.7793533 L529.074748,85.0206467 Z M558.378972,15.6105033 L531.778972,78.5105033 L533.621028,79.2894967 L560.221028,16.3894967 L558.378972,15.6105033 Z M568.610772,35.1425359 L533.010772,104.342536 L534.789228,105.257464 L570.389228,36.0574641 L568.610772,35.1425359 Z M641.362166,111.256949 L584.462166,147.556949 L585.537834,149.243051 L642.437834,112.943051 L641.362166,111.256949 Z M634.742993,97.5694923 L609.842993,114.269492 L610.957007,115.930508 L635.857007,99.2305077 L634.742993,97.5694923 Z M604.426897,117.880517 L573.826897,139.280517 L574.973103,140.919483 L605.573103,119.519483 L604.426897,117.880517 Z M632.062533,77.0295222 L553.862533,141.729522 L555.137467,143.270478 L633.337467,78.5704778 L632.062533,77.0295222 Z M543.4122,141.601977 L564.0122,120.701977 L562.5878,119.298023 L541.9878,140.198023 L543.4122,141.601977 Z M570.702554,114.111631 L609.902554,75.4116307 L608.497446,73.9883693 L569.297446,112.688369 L570.702554,114.111631 Z M543.969229,127.438973 L606.269229,52.438973 L604.730771,51.161027 L542.430771,126.161027 L543.969229,127.438973 Z M580.471276,53.0403423 L570.071276,68.4403423 L571.728724,69.5596577 L582.128724,54.1596577 L580.471276,53.0403423 Z M567.171013,72.7407315 L538.971013,114.540732 L540.628987,115.659268 L568.828987,73.8592685 L567.171013,72.7407315 Z M417.398969,145.154592 C415.92365,112.697583 441.105839,85.1735713 473.645271,83.6989748 C506.102417,82.2236499 533.626429,107.405839 535.101025,139.945271 C535.291455,143.37395 535.119077,146.895395 534.610051,150.458579 L536.589949,150.741421 C537.117093,147.051414 537.295905,143.398541 537.09846,139.84453 C535.574407,106.212605 507.115992,80.1755133 473.554592,81.7010315 C439.912605,83.2255928 413.875513,111.684008 415.401031,145.245408 L417.398969,145.154592 Z M766,309.048417 L766,294.77682 L760.303861,298.031757 L761.296139,299.768243 L764,298.22318 L764,305.551583 L746.284285,295.130574 L735.605526,301.804799 L746.406852,308.479775 L755.135542,302.944509 L766,309.048417 Z M746.393148,306.120225 L739.394474,301.795201 L746.315715,297.469426 L753.432889,301.655998 L746.393148,306.120225 Z M280,234.8 C278.287917,234.8 276.9,233.412083 276.9,231.7 C276.9,229.987917 278.287917,228.6 280,228.6 C281.712083,228.6 283.1,229.987917 283.1,231.7 C283.1,233.412083 281.712083,234.8 280,234.8 Z M221,182.867777 L221,195.017739 L231.030783,188.660201 L221,182.867777 Z M227.169217,188.739799 L223,191.382261 L223,186.332223 L227.169217,188.739799 Z M115,274.332223 L115,262.060577 L104.985209,268.549033 L115,274.332223 Z M108.814791,268.450967 L113,265.739423 L113,270.867777 L108.814791,268.450967 Z M209,272.9 C207.287917,272.9 205.9,271.512083 205.9,269.8 C205.9,268.087917 207.287917,266.7 209,266.7 C210.712083,266.7 212.1,268.087917 212.1,269.8 C212.1,271.512083 210.712083,272.9 209,272.9 Z M382.5,247.6 C380.787917,247.6 379.4,246.212083 379.4,244.5 C379.4,242.787917 380.787917,241.4 382.5,241.4 C384.212083,241.4 385.6,242.787917 385.6,244.5 C385.6,246.212083 384.212083,247.6 382.5,247.6 Z M353.915703,248.5 L341.496847,241.446447 L353.915703,235.5 L365.5,241.446447 L353.915703,248.5 Z M382,275 L370,267.421565 L382.085125,260 L394,267.421565 L382,275 Z M868.132325,277.185586 L862.003132,280.742031 L855.967816,277.196283 L862.096819,273.564282 L868.132325,277.185586 Z M808,264.211597 L800,268.656041 L792,264.211597 L792,255.079515 L799.905478,250.549409 L808,255.085899 L808,264.211597 Z M810.105727,244.203459 L810.194644,234.867178 L817.80876,230.263294 L825.694358,234.870609 L825.605625,243.921397 L817.931467,248.383116 L810.105727,244.203459 Z M841.9,240.841542 L849.794301,245.187843 L849.705648,254.407844 L841.519767,258.94567 L834,254.43381 L834,245.19098 L841.9,240.841542 Z M826.68286,256.343408 L826.618031,262.955977 L821.302043,259.455205 L826.68286,256.343408 Z M791.917037,280.867085 L791.982088,274.231963 L797.381255,277.744674 L791.917037,280.867085 Z M576.5,256 C579.717647,256 582,254.002941 582,250.9 L582,250.6 C582,247.420189 579.628058,244.9 576.5,244.9 L544.7,244.9 C541.547715,244.9 539,247.447715 539,250.6 L539,250.9 C539,253.985115 541.446646,256 544.7,256 L576.5,256 Z M576.5,254 L544.7,254 C542.474782,254 541,252.785473 541,250.9 L541,250.6 C541,248.552285 542.652285,246.9 544.7,246.9 L576.5,246.9 C578.495472,246.9 580,248.498561 580,250.6 L580,250.9 C580,252.834559 578.668067,254 576.5,254 Z M363.3,296 L268,296 C264.888376,296 262.1,298.904559 262.1,302 L262.1,302.2 C262.1,305.09469 264.628199,307 267.8,307 L324.3,307 C326.266568,307 328.2,309.067698 328.2,311.1 L328.2,311.4 C328.2,313.373187 326.425294,315 324.3,315 L311.5,315 C308.198082,315 305.2,317.580628 305.2,320.7 L305.2,320.9 C305.2,324.015434 308.044628,325.9 311.5,325.9 L353.6,325.9 C356.721078,325.9 359.1,324.169875 359.1,321.3 L359.1,320.4 C359.1,317.291986 356.409016,314.9 353.2,314.9 L342.7,314.9 C340.598561,314.9 339,313.395472 339,311.4 L339,311.2 C339,309.028519 340.768452,307 342.7,307 L363,307 C365.842161,307 368.309879,305.104507 368.785212,302.371341 C369.270685,298.976275 366.646864,296 363.3,296 Z M363.3,298 C365.437347,298 367.117572,299.905927 366.810051,302.058579 C366.512812,303.76502 364.905009,305 363,305 L342.7,305 C339.598214,305 337,307.980305 337,311.2 L337,311.4 C337,314.528058 339.520189,316.9 342.7,316.9 L353.2,316.9 C355.353484,316.9 357.1,318.452458 357.1,320.4 L357.1,321.3 C357.1,322.902852 355.728922,323.9 353.6,323.9 L311.5,323.9 C309.017636,323.9 307.2,322.695816 307.2,320.9 L307.2,320.7 C307.2,318.757347 309.241624,317 311.5,317 L324.3,317 C327.492887,317 330.2,314.51848 330.2,311.4 L330.2,311.1 C330.2,307.992024 327.402263,305 324.3,305 L267.8,305 C265.629493,305 264.1,303.847339 264.1,302.2 L264.1,302 C264.1,299.991275 266.011624,298 268,298 L363.3,298 Z M517.238759,299.182206 L503.856927,299.318755 L510.957491,310.10615 L517.238759,299.182206 Z M510.842509,306.29385 L507.543073,301.281245 L513.761241,301.217794 L510.842509,306.29385 Z M472,188.5 C472,185.447715 469.552285,183 466.5,183 L417.5,183 C414.447715,183 412,185.447715 412,188.5 C412,191.552285 414.447715,194 417.5,194 L466.5,194 C469.552285,194 472,191.552285 472,188.5 Z M470,188.5 C470,190.447715 468.447715,192 466.5,192 L417.5,192 C415.552285,192 414,190.447715 414,188.5 C414,186.552285 415.552285,185 417.5,185 L466.5,185 C468.447715,185 470,186.552285 470,188.5 Z M615,319.3 C615,315.847715 612.152285,313 608.7,313 L527.3,313 C523.847715,313 521,315.847715 521,319.3 L521,319.7 C521,323.152285 523.847715,326 527.3,326 L608.7,326 C612.152285,326 615,323.152285 615,319.7 L615,319.3 Z M613,319.3 L613,319.7 C613,322.047715 611.047715,324 608.7,324 L527.3,324 C524.952285,324 523,322.047715 523,319.7 L523,319.3 C523,316.952285 524.952285,315 527.3,315 L608.7,315 C611.047715,315 613,316.952285 613,319.3 Z M671.8,226.360549 L671.8,239.755418 L682.597904,232.647936 L671.8,226.360549 Z M678.802096,232.752064 L673.8,236.044582 L673.8,229.839451 L678.802096,232.752064 Z"/>
</svg>
